<svg width="965" height="271" viewBox="0 0 965 271" fill="none" xmlns="http://www.w3.org/2000/svg">
<g id="HPSB12">
<path id="HPSB12_2" d="M430.5 81.5V85.5H427.5V98.5H430.5V104.404L400.001 104.368L399.999 105.368L430.999 105.406H431.488L508.997 105.499L508.998 105.5V105.499L508.999 105.5L509 105L509.002 104.5L478.5 104.37V98.5H481.5V85.5H478.5V81.5H518.5V104.5H517V105.5H525.5V108.5H545.5V105.5H581.5V124.5H584.5V160.5H581.5V180.5H584.5V226.5H551.5V194.5H548.5V191.5H528.5V194.5H527.5V144.5H491.5V141.5H471.5V144.5H470.5V194.5H445.5V144.5H392.5V134.5H395.5V114.5H392.5V81.5H430.5Z" fill="#182626" stroke="#3F5E5E"/>
<rect id="22212" x="527.5" y="227.5" width="57" height="43" fill="#1D4427" stroke="#68EC89"/>
<rect id="Rectangle 574" x="389.5" y="164.5" width="5" height="11" fill="#203003" stroke="#4A3E0F"/>
<path id="Rectangle 575" d="M394.5 115.5V133.5H389.5V115.5H394.5Z" fill="#203003" stroke="#4A3E0F"/>
<rect id="Rectangle 576" x="472.5" y="142.5" width="18" height="5" fill="#203003" stroke="#4A3E0F"/>
<rect id="Rectangle 577" x="526.5" y="102.5" width="18" height="5" fill="#203003" stroke="#4A3E0F"/>
<rect id="Rectangle 578" x="582.5" y="105.5" width="5" height="18" fill="#203003" stroke="#4A3E0F"/>
<rect id="Rectangle 579" x="582.5" y="161.5" width="5" height="18" fill="#203003" stroke="#4A3E0F"/>
<rect id="Rectangle 580" x="529.5" y="192.5" width="18" height="5" fill="#203003" stroke="#4A3E0F"/>
<path id="Rectangle 582" d="M528.5 195.5V198.5H548.5V195.5H550.5V226.5H527.5V195.5H528.5Z" fill="#2F3332" stroke="#B1ADAD"/>
<path id="101206" d="M526.5 145.5V194.5H491.5V145.5H526.5Z" fill="#2F3332" stroke="#B1ADAD"/>
<path id="Rectangle 584" d="M471.5 148.5H491.5V194.5H471.5V148.5Z" fill="#2F3332" stroke="#B1ADAD"/>
<rect id="101207" x="408.5" y="145.5" width="36" height="49" fill="#1D4427" stroke="#68EC89"/>
<path id="101209" d="M407.5 145.5V194.5H392.5V176.5H395.5V163.5H392.5V145.5H407.5Z" fill="#2F3332" stroke="#B1ADAD"/>
<rect id="Rectangle 588" x="335.5" y="50.5" width="11" height="5" fill="#203003" stroke="#4A3E0F"/>
<rect id="Rectangle 589" x="378.5" y="50.5" width="11" height="5" fill="#203003" stroke="#4A3E0F"/>
<path id="101211" d="M391.5 0.5V52.5H390.5V49.5H377.5V52.5H363.5V0.5H391.5Z" fill="#162433" stroke="#1B2550"/>
<path id="101212" d="M362.5 0.5V52.5H347.5V49.5H334.5V0.5H362.5Z" fill="#2F182D" stroke="#773B72"/>
<rect id="Rectangle 592" x="370.5" y="54.5" width="5" height="9" fill="#203003" stroke="#4A3E0F"/>
<rect id="Rectangle 593" x="362.5" y="75.5" width="9" height="5" fill="#203003" stroke="#4A3E0F"/>
<path id="101210" d="M369.5 53.5V64.5H372.5V74.5H361.5V77.5H352.5V53.5H369.5Z" fill="#2F3332" stroke="#B1ADAD"/>
<path id="Rectangle 595" d="M361.5 78.5V81.5H372.5V102.5H352.5V78.5H361.5Z" fill="#2F3332" stroke="#B1ADAD"/>
<path id="Rectangle 596" d="M433.5 86.5V97.5H428.5V86.5H433.5Z" fill="#203003" stroke="#4A3E0F"/>
<path id="Rectangle 597" d="M480.5 86.5V97.5H475.5V86.5H480.5Z" fill="#203003" stroke="#4A3E0F"/>
<path id="101203" d="M584.5 0.5V104.5H545.5V101.5H525.5V104.5H519.5V0.5H584.5Z" fill="#2F3332" stroke="#B1ADAD"/>
<path id="101204" d="M905.5 0.5V37.5H906.5V40.5H917.5V37.5H924.5V78.5H948.5V210.5H925.5V211.5H922.5V224.5H925.5V237.5H905.5V270.5H585.5V180.5H588.5V160.5H585.5V124.5H588.5V104.5H585.5V0.5H905.5Z" fill="#2F3332" stroke="#B1ADAD"/>
<rect id="Rectangle 600" x="907.5" y="34.5" width="9" height="5" fill="#203003" stroke="#4A3E0F"/>
<rect id="Rectangle 601" x="923.5" y="212.5" width="5" height="11" fill="#203003" stroke="#4A3E0F"/>
<path id="24" d="M948.5 211.5V270.5H906.5V238.5H926.5V224.5H929.5V211.5H948.5Z" fill="#772C15" stroke="#FF8D4F"/>
<path id="101205" d="M948.5 0.5V77.5H925.5V36.5H917.5V34H906.5V0.5H948.5Z" fill="#2F3332" stroke="#B1ADAD"/>
<path id="101208" d="M351.5 53.4998V103.5H373.5V64.4998H376.5V53.4998H377.5V56.4998H390.5V53.4998H391.5V114.5H388.5V134.5H391.5V163.5H388.5V176.5H391.5V195.5H526.5V270.5H64.5V239.5H63.5V236.5H43.5V239.5H21.5V216.5H17.5V213.5H4.5V216.5H0.5V103.5L333.999 104.109L334.5 104.11V102.5H337.5V89.4998H334.5V56.4998H347.5V53.4998H351.5Z" fill="#2F3332" stroke="#B1ADAD"/>
<rect id="Rectangle 608" x="5.5" y="214.5" width="11" height="5" fill="#203003" stroke="#4A3E0F"/>
<rect id="Rectangle 609" x="44.5" y="237.5" width="18" height="5" fill="#203003" stroke="#4A3E0F"/>
<path id="101213" d="M43.5 240.5V243.5H63.5V270.5H42.5V240.5H43.5Z" fill="#2F3332" stroke="#B1ADAD"/>
<path id="23" d="M4.5 217.5V220.5H17.5V217.5H20.5V240.5H41.5V270.5H0.5V217.5H4.5Z" fill="#772C15" stroke="#FF8D4F"/>
<path id="101201" d="M454.5 0.5V104.5H431.5V98.5H434.5V85.5H431.5V80.5H392.5V0.5H454.5Z" fill="#2F3332" stroke="#B1ADAD"/>
<rect id="Rectangle 614" x="430" width="1" height="53" fill="#B1ADAD"/>
<path id="Rectangle 615" d="M426 58H432V80H431V59H426V58Z" fill="#B1ADAD"/>
<path id="101202" d="M518.5 0.5V80.5H477.5V85.5H474.5V98.5H477.5V104.5H455.5V0.5H518.5Z" fill="#2F3332" stroke="#B1ADAD"/>
<path id="Rectangle 617" d="M477 58H483V59H478V69.5V80H477V58Z" fill="#B1ADAD"/>
<rect id="Rectangle 618" x="478" y="1" width="1" height="52" fill="#B1ADAD"/>
<rect id="Rectangle 619" x="949.5" y="0.5" width="15" height="140" fill="#2F3332" stroke="#B1ADAD"/>
<g id="Exclude">
<mask id="path-43-inside-1_113_6" fill="white">
<path d="M334 90H331V102H334V104H313V0H334V90Z"/>
</mask>
<path d="M334 90H331V102H334V104H313V0H334V90Z" fill="#2F3332"/>
<path d="M334 90V91H335V90H334ZM331 90V89H330V90H331ZM331 102H330V103H331V102ZM334 102H335V101H334V102ZM334 104V105H335V104H334ZM313 104H312V105H313V104ZM313 0V-1H312V0H313ZM334 0H335V-1H334V0ZM334 90V89H331V90V91H334V90ZM331 90H330V102H331H332V90H331ZM331 102V103H334V102V101H331V102ZM334 102H333V104H334H335V102H334ZM334 104V103H313V104V105H334V104ZM313 104H314V0H313H312V104H313ZM313 0V1H334V0V-1H313V0ZM334 0H333V90H334H335V0H334Z" fill="#B1ADAD" mask="url(#path-43-inside-1_113_6)"/>
</g>
<rect id="Rectangle 634" x="331.5" y="90.5" width="5" height="11" fill="#203003" stroke="#4A3E0F"/>
</g>
</svg>
