<svg width="966" height="271" viewBox="0 0 966 271" fill="none" xmlns="http://www.w3.org/2000/svg">
<g id="HPSB10">
<rect id="Rectangle 412" x="49.5" y="182.5" width="11" height="5" fill="#203003" stroke="#4A3E0F"/>
<rect id="Rectangle 418" x="45.5" y="214.5" width="9" height="5" fill="#203003" stroke="#4A3E0F"/>
<rect id="Rectangle 417" x="5.5" y="203.5" width="11" height="5" fill="#203003" stroke="#4A3E0F"/>
<rect id="Rectangle 414" x="116.5" y="182.5" width="11" height="5" fill="#203003" stroke="#4A3E0F"/>
<path id="Rectangle 415" d="M193.5 182.5V187.5H182.5V182.5H193.5Z" fill="#203003" stroke="#4A3E0F"/>
<path id="Rectangle 416" d="M259.5 182.5V187.5H248.5V182.5H259.5Z" fill="#203003" stroke="#4A3E0F"/>
<rect id="Rectangle 430" x="393.5" y="186.5" width="5" height="18" fill="#203003" stroke="#4A3E0F"/>
<rect id="Rectangle 439" x="315.5" y="182.5" width="11" height="5" fill="#203003" stroke="#4A3E0F"/>
<rect id="Rectangle 441" x="786.5" y="102.5" width="11" height="5" fill="#203003" stroke="#4A3E0F"/>
<rect id="Rectangle 443" x="755.5" y="102.5" width="11" height="5" fill="#203003" stroke="#4A3E0F"/>
<rect id="Rectangle 442" x="854.5" y="102.5" width="18" height="5" fill="#203003" stroke="#4A3E0F"/>
<rect id="Rectangle 444" x="694.5" y="102.5" width="11" height="5" fill="#203003" stroke="#4A3E0F"/>
<rect id="Rectangle 445" x="633.5" y="102.5" width="11" height="5" fill="#203003" stroke="#4A3E0F"/>
<rect id="Rectangle 448" x="572.5" y="102.5" width="11" height="5" fill="#203003" stroke="#4A3E0F"/>
<rect id="Rectangle 453" x="511.5" y="102.5" width="11" height="5" fill="#203003" stroke="#4A3E0F"/>
<rect id="Rectangle 454" x="450.5" y="102.5" width="11" height="5" fill="#203003" stroke="#4A3E0F"/>
<rect id="Rectangle 455" x="390.5" y="168.5" width="5" height="9" fill="#203003" stroke="#4A3E0F"/>
<path id="101001" d="M69.5 102.5V184.5H61.5V181.5H48.5V184.5H0.5V102.5H69.5Z" fill="#2F3332" stroke="#B1ADAD"/>
<path id="101002" d="M135.5 102.5V184.5H128.5V181.5H115.5V184.5H70.5V102.5H135.5Z" fill="#2F3332" stroke="#B1ADAD"/>
<path id="101003" d="M201.5 102.5V184.5H194.5V181.5H181.5V184.5H136.5V102.5H201.5Z" fill="#2F3332" stroke="#B1ADAD"/>
<path id="101004" d="M268.5 102.5V184.5H260.5V181.5H247.5V184.5H202.5V102.5H268.5Z" fill="#2F3332" stroke="#B1ADAD"/>
<path id="101005" d="M334.5 102.5V184.5H327.5V181.5H314.5V184.5H269.5V102.5H334.5Z" fill="#2F3332" stroke="#B1ADAD"/>
<rect id="Rectangle 465" x="398.5" y="233.5" width="9" height="5" fill="#203003" stroke="#4A3E0F"/>
<rect id="Rectangle 466" x="336.5" y="49.5" width="11" height="5" fill="#203003" stroke="#4A3E0F"/>
<rect id="Rectangle 467" x="391.5" y="49.5" width="11" height="5" fill="#203003" stroke="#4A3E0F"/>
<rect id="Rectangle 468" x="378.5" y="54.5" width="5" height="9" fill="#203003" stroke="#4A3E0F"/>
<rect id="Rectangle 469" x="370.5" y="75.5" width="9" height="5" fill="#203003" stroke="#4A3E0F"/>
<rect id="Rectangle 471" x="332.5" y="89.5" width="5" height="11" fill="#203003" stroke="#4A3E0F"/>
<path id="Rectangle 472" d="M334.5 0.5V88.6348H331.5V101.52H334.5V102.5H312.5V0.5H334.5Z" fill="#2F3332" stroke="#B1ADAD"/>
<path id="101022" d="M369.5 0.5V52.5H348.5V49.5H335.5V0.5H369.5Z" fill="#2F182D" stroke="#773B72"/>
<path id="101023" d="M403.5 0.5V49.5H390.5V52.5H370.5V0.5H403.5Z" fill="#162433" stroke="#1B2550"/>
<path id="101021" d="M377.993 53.5L377.5 53.5068V64.5H380.5V74.6152H369.5V77.5H358.5V53.5H377.993Z" fill="#2F3332" stroke="#B1ADAD"/>
<path id="Rectangle 476" d="M369.5 78.5V81.5H380.5V102.5H358.5V78.5H369.5Z" fill="#2F3332" stroke="#B1ADAD"/>
<path id="101007" d="M464.5 0.5V104.5H462.5V101.528H449.5V104.5H404.5V0.5H464.5Z" fill="#2F3332" stroke="#B1ADAD"/>
<path id="101008" d="M525.5 0.5V104.5H523.5V101.5H510.5V104.5H465.5V0.5H525.5Z" fill="#2F3332" stroke="#B1ADAD"/>
<path id="101009" d="M586.5 0.5V104.5H584.5V101.5H571.5V104.5H526.5V0.5H586.5Z" fill="#2F3332" stroke="#B1ADAD"/>
<path id="101010" d="M647.5 0.5V104.5H645.5V101.5H632.5V104.5H587.5V0.5H647.5Z" fill="#2F3332" stroke="#B1ADAD"/>
<path id="101011" d="M708.5 0.5V104.5H706.5V101.5H693.5V104.5H648.5V0.5H708.5Z" fill="#2F3332" stroke="#B1ADAD"/>
<path id="101012" d="M851.5 0.5V39.5H875.5V104.5H873.5V101.5H853.5V104.5H798.5V101.5H785.5V104.5H767.5V101.5H754.5V104.5H709.5V0.5H851.5Z" fill="#2F3332" stroke="#B1ADAD"/>
<rect id="Rectangle 483" x="852.5" y="0.5" width="23" height="38" fill="#2F3332" stroke="#B1ADAD"/>
<rect id="Rectangle 484" x="633.5" y="180.5" width="11" height="5" fill="#203003" stroke="#4A3E0F"/>
<path id="Rectangle 485" d="M705.5 180.5V185.5H694.5V180.5H705.5Z" fill="#203003" stroke="#4A3E0F"/>
<rect id="Rectangle 486" x="755.5" y="180.5" width="11" height="5" fill="#203003" stroke="#4A3E0F"/>
<rect id="Rectangle 487" x="811.5" y="180.5" width="11" height="5" fill="#203003" stroke="#4A3E0F"/>
<rect id="Rectangle 488" x="861.5" y="180.5" width="11" height="5" fill="#203003" stroke="#4A3E0F"/>
<rect id="Rectangle 489" x="893.5" y="180.5" width="11" height="5" fill="#203003" stroke="#4A3E0F"/>
<rect id="Rectangle 490" x="937.5" y="208.5" width="11" height="5" fill="#203003" stroke="#4A3E0F"/>
<rect id="Rectangle 491" x="878.5" y="102.5" width="11" height="5" fill="#203003" stroke="#4A3E0F"/>
<rect id="Rectangle 492" x="936.5" y="102.5" width="11" height="5" fill="#203003" stroke="#4A3E0F"/>
<rect id="Rectangle 493" x="939.5" y="115.5" width="9" height="5" fill="#203003" stroke="#4A3E0F"/>
<rect id="Rectangle 494" x="949.5" y="106.5" width="5" height="9" fill="#203003" stroke="#4A3E0F"/>
<rect id="Rectangle 495" x="894.5" y="120.5" width="5" height="9" fill="#203003" stroke="#4A3E0F"/>
<path id="101028" d="M912.5 0.5V104.5H890.5V101.5H877.5V104.5H876.5V0.5H912.5Z" fill="#2F182D" stroke="#773B72"/>
<path id="101029" d="M949.5 0.5V104.5H948.5V101.5H935.5V104.5H913.5V0.5H949.5Z" fill="#162433" stroke="#1B2550"/>
<path id="Rectangle 498" d="M965.5 0.5V140.5H950.5V116.5H955.5V105.5H950.5V0.5H965.5Z" fill="#2F3332" stroke="#B1ADAD"/>
<path id="101027" d="M938.5 118.5V121.5H949.5V144.5H924.5V118.5H938.5Z" fill="#2F3332" stroke="#B1ADAD"/>
<path id="100110" d="M923.5 118.5V144.5H897.5V130.5H900.5V119.5H897.5V118.5H923.5Z" fill="#2F3332" stroke="#B1ADAD"/>
<path id="101017" d="M632.5 183.5V186.5H645.5V183.5H647.5V270.5H586.5V183.5H632.5Z" fill="#2F3332" stroke="#B1ADAD"/>
<path id="101014" d="M810.5 183.5V186.5H823.5V183.5H825.5V270.5H770.5V183.5H810.5Z" fill="#2F3332" stroke="#B1ADAD"/>
<path id="101015" d="M754.5 183.5V186.5H767.5V183.5H769.5V270.5H709.5V183.5H754.5Z" fill="#2F3332" stroke="#B1ADAD"/>
<path id="101016" d="M693.5 183.5V186.5H706.5V183.5H708.5V270.5H648.5V183.5H693.5Z" fill="#2F3332" stroke="#B1ADAD"/>
<path id="101013" d="M860.5 183.5V186.5H873.5V183.5H875.5V270.5H826.5V183.5H860.5Z" fill="#2F3332" stroke="#B1ADAD"/>
<path id="101030" d="M892.5 183.5V186.5H905.5V183.5H906.5V270.5H876.5V183.5H892.5Z" fill="#2F3332" stroke="#B1ADAD"/>
<path id="20" d="M936.5 211.5V214.5H949.5V270.5H907.5V211.5H936.5Z" fill="#772C15" stroke="#FF8D4F"/>
<path id="19" d="M4.5 206.5V209.5H17.5V206.5H42.5V270.5H0.5V206.5H4.5Z" fill="#772C15" stroke="#FF8D4F"/>
<path id="101018" d="M44.5 217.5V220.5H55.5V217.5H67.5V270.5H43.5V217.5H44.5Z" fill="#2F3332" stroke="#B1ADAD"/>
<path id="Rectangle 510" d="M397.5 236.5V239.417H408.5V236.5H410.5V270.5H396.5V236.5H397.5Z" fill="#2F3332" stroke="#B1ADAD"/>
<path id="101006" d="M408.5 186.5V195.5H527.5V270.5H411.5V235.5H408.5V232.5H397.5V235.5H396.5V205.5H399.5V186.5H408.5Z" fill="#2F3332" stroke="#B1ADAD"/>
<path id="Rectangle 513" d="M408.5 145.5V185.5H392.5V178.5H396.5V167.5H392.5V145.5H408.5Z" fill="#2F3332" stroke="#B1ADAD"/>
<rect id="101024" x="409.5" y="145.5" width="36" height="49" fill="#1D4427" stroke="#68EC89"/>
<rect id="101025" x="491.5" y="145.5" width="36" height="49" fill="#1D4427" stroke="#68EC89"/>
<rect id="22210" x="528.5" y="225.5" width="57" height="45" fill="#1D4427" stroke="#68EC89"/>
<g id="HPSB10_2">
<mask id="path-73-inside-1_100_21" fill="white">
<path d="M0 185V206H5V203H17V206H43V217H45V214H55V217H68V271H396V205H393V186H392V178H390V168H392V145H446V195H491V145H528V225H586V183H633V180H645V183H694V180H706V183H755V180H767V183H811V180H823V183H861V180H873V183H893V180H905V183H907V211H937V208H949V211H950V145H897V130H894V120H897V118H939V115H949V106H950V105H948V108H936V105H890V108H878V105H876H873V108H854V105H798V108H786V105H767V108H755V105H706V108H694V105H645V108H633V105H584V108H572V105H523V108H511V105H462V108H450V105H404V53H403V55H391V53L384 53.0001L381 53V54H384V64H381V103H358V53.0001H348V55.0001H336V53.0001H335V89H338V101H335V185H327V188H315V185H260V188H248V185H194V188H182V185H128V188H116V185H61V188H49V185H0Z"/>
</mask>
<path d="M0 185V206H5V203H17V206H43V217H45V214H55V217H68V271H396V205H393V186H392V178H390V168H392V145H446V195H491V145H528V225H586V183H633V180H645V183H694V180H706V183H755V180H767V183H811V180H823V183H861V180H873V183H893V180H905V183H907V211H937V208H949V211H950V145H897V130H894V120H897V118H939V115H949V106H950V105H948V108H936V105H890V108H878V105H876H873V108H854V105H798V108H786V105H767V108H755V105H706V108H694V105H645V108H633V105H584V108H572V105H523V108H511V105H462V108H450V105H404V53H403V55H391V53L384 53.0001L381 53V54H384V64H381V103H358V53.0001H348V55.0001H336V53.0001H335V89H338V101H335V185H327V188H315V185H260V188H248V185H194V188H182V185H128V188H116V185H61V188H49V185H0Z" fill="#182626"/>
<path d="M876 144.95H875.5V145.446L875.996 145.45L876 144.95ZM876 105H875.5V144.95H876H876.5V105H876ZM876 144.95L875.996 145.45L881.996 145.5L882 145L882.004 144.5L876.004 144.45L876 144.95ZM0 206H-1V207H0V206ZM0 185V184H-1V185H0ZM17 203H18V202H17V203ZM5 203V202H4V203H5ZM5 206V207H6V206H5ZM17 206H16V207H17V206ZM43 206H44V205H43V206ZM43 217H42V218H43V217ZM45 217V218H46V217H45ZM45 214V213H44V214H45ZM55 214H56V213H55V214ZM68 217H69V216H68V217ZM55 217H54V218H55V217ZM68 271H67V272H68V271ZM396 271V272H397V271H396ZM396 205H397V204H396V205ZM393 205H392V206H393V205ZM248 188H247V189H248V188ZM260 188V189H261V188H260ZM260 185V184H259V185H260ZM315 185H316V184H315V185ZM315 188H314V189H315V188ZM327 188V189H328V188H327ZM327 185V184H326V185H327ZM335 185V186H336V185H335ZM392 178H393V177H392V178ZM392 186H391V187H392V186ZM393 186H394V185H393V186ZM182 188H181V189H182V188ZM194 188V189H195V188H194ZM194 185V184H193V185H194ZM248 185H249V184H248V185ZM128 188V189H129V188H128ZM128 185V184H127V185H128ZM182 185H183V184H182V185ZM61 188V189H62V188H61ZM61 185V184H60V185H61ZM116 185H117V184H116V185ZM116 188H115V189H116V188ZM49 185H50V184H49V185ZM49 188H48V189H49V188ZM358 53.0001H359V52.0001H358V53.0001ZM358 103H357V104H358V103ZM381 103V104H382V103H381ZM348 55.0001V56.0001H349V55.0001H348ZM348 53.0001V52.0001H347V53.0001H348ZM336 55.0001H335V56.0001H336V55.0001ZM335 53.0001V52.0001H334V53.0001H335ZM336 53.0001H337V52.0001H336V53.0001ZM390 178H389V179H390V178ZM390 168V167H389V168H390ZM392 168V169H393V168H392ZM392 145V144H391V145H392ZM381 64V63H380V64H381ZM384 64V65H385V64H384ZM384 53.0001L384 54.0001H384V53.0001ZM391 53H392V52L391 52V53ZM391 55H390V56H391V55ZM403 55V56H404V55H403ZM403 53V52H402V53H403ZM404 53H405V52H404V53ZM446 145H447V144H446V145ZM338 101V102H339V101H338ZM338 89H339V88H338V89ZM335 89H334V90H335V89ZM335 101V100H334V101H335ZM404 105H403V106H404V105ZM446 195H445V196H446V195ZM491 195V196H492V195H491ZM491 145V144H490V145H491ZM528 145H529V144H528V145ZM528 225H527V226H528V225ZM586 225V226H587V225H586ZM897 130H898V129H897V130ZM897 145H896V146H897V145ZM894 130H893V131H894V130ZM894 120V119H893V120H894ZM897 118V117H896V118H897ZM897 120V121H898V120H897ZM878 105H879V104H878V105ZM878 108H877V109H878V108ZM890 108V109H891V108H890ZM890 105V104H889V105H890ZM936 105H937V104H936V105ZM939 118V119H940V118H939ZM936 108H935V109H936V108ZM948 108V109H949V108H948ZM939 115V114H938V115H939ZM949 115V116H950V115H949ZM949 106V105H948V106H949ZM948 105V104H947V105H948ZM950 105H951V104H950V105ZM950 106V107H951V106H950ZM950 145H951V144H950V145ZM950 211V212H951V211H950ZM949 211H948V212H949V211ZM949 208H950V207H949V208ZM937 208V207H936V208H937ZM937 211V212H938V211H937ZM907 211H906V212H907V211ZM907 183H908V182H907V183ZM767 180H768V179H767V180ZM755 180V179H754V180H755ZM767 183H766V184H767V183ZM755 183V184H756V183H755ZM706 183H705V184H706V183ZM706 180H707V179H706V180ZM694 180V179H693V180H694ZM694 183V184H695V183H694ZM645 180H646V179H645V180ZM633 180V179H632V180H633ZM645 183H644V184H645V183ZM633 183V184H634V183H633ZM586 183V182H585V183H586ZM811 180V179H810V180H811ZM811 183V184H812V183H811ZM823 180H824V179H823V180ZM823 183H822V184H823V183ZM861 180V179H860V180H861ZM861 183V184H862V183H861ZM873 180H874V179H873V180ZM873 183H872V184H873V183ZM893 180V179H892V180H893ZM893 183V184H894V183H893ZM905 180H906V179H905V180ZM905 183H904V184H905V183ZM645 108V109H646V108H645ZM645 105V104H644V105H645ZM633 108H632V109H633V108ZM633 105H634V104H633V105ZM755 108H754V109H755V108ZM767 108V109H768V108H767ZM767 105V104H766V105H767ZM786 105H787V104H786V105ZM786 108H785V109H786V108ZM798 108V109H799V108H798ZM798 105V104H797V105H798ZM854 108H853V109H854V108ZM873 108V109H874V108H873ZM873 105V104H872V105H873ZM854 105H855V104H854V105ZM755 105H756V104H755V105ZM706 108V109H707V108H706ZM706 105V104H705V105H706ZM694 108H693V109H694V108ZM694 105H695V104H694V105ZM584 108V109H585V108H584ZM584 105V104H583V105H584ZM572 108H571V109H572V108ZM572 105H573V104H572V105ZM523 108V109H524V108H523ZM523 105V104H522V105H523ZM511 108H510V109H511V108ZM511 105H512V104H511V105ZM462 108V109H463V108H462ZM462 105V104H461V105H462ZM450 108H449V109H450V108ZM450 105H451V104H450V105ZM384 54H385V53H384V54ZM381 54H380V55H381V54ZM381 53L381 52L380 52V53H381ZM0 206H1V185H0H-1V206H0ZM17 203V202H5V203V204H17V203ZM5 203H4V206H5H6V203H5ZM5 206V205H0V206V207H5V206ZM17 206H18V203H17H16V206H17ZM43 206V205H17V206V207H43V206ZM43 217H44V206H43H42V217H43ZM45 217V216H43V217V218H45V217ZM45 214H44V217H45H46V214H45ZM55 214V213H45V214V215H55V214ZM68 217V216H55V217V218H68V217ZM55 217H56V214H55H54V217H55ZM68 271H69V217H68H67V271H68ZM396 271V270H68V271V272H396V271ZM396 205H395V271H396H397V205H396ZM393 205V206H396V205V204H393V205ZM248 188V189H260V188V187H248V188ZM260 188H261V185H260H259V188H260ZM260 185V186H315V185V184H260V185ZM315 185H314V188H315H316V185H315ZM315 188V189H327V188V187H315V188ZM327 188H328V185H327H326V188H327ZM327 185V186H335V185V184H327V185ZM392 178H391V186H392H393V178H392ZM392 186V187H393V186V185H392V186ZM393 186H392V205H393H394V186H393ZM182 188V189H194V188V187H182V188ZM194 188H195V185H194H193V188H194ZM194 185V186H248V185V184H194V185ZM248 185H247V188H248H249V185H248ZM128 188H129V185H128H127V188H128ZM128 185V186H182V185V184H128V185ZM182 185H181V188H182H183V185H182ZM61 188H62V185H61H60V188H61ZM61 185V186H116V185V184H61V185ZM116 185H115V188H116H117V185H116ZM116 188V189H128V188V187H116V188ZM0 185V186H49V185V184H0V185ZM49 185H48V188H49H50V185H49ZM49 188V189H61V188V187H49V188ZM358 53.0001H357V103H358H359V53.0001H358ZM358 103V104H381V103V102H358V103ZM348 55.0001H349V53.0001H348H347V55.0001H348ZM348 53.0001V54.0001H358V53.0001V52.0001H348V53.0001ZM336 55.0001V56.0001H348V55.0001V54.0001H336V55.0001ZM335 53.0001V54.0001H336V53.0001V52.0001H335V53.0001ZM336 53.0001H335V55.0001H336H337V53.0001H336ZM390 178V179H392V178V177H390V178ZM390 168H389V178H390H391V168H390ZM392 168V167H390V168V169H392V168ZM392 145H391V168H392H393V145H392ZM381 103H382V64H381H380V103H381ZM381 64V65H384V64V63H381V64ZM384 53.0001V54.0001L391 54V53V52L384 52.0001V53.0001ZM391 53H390V55H391H392V53H391ZM391 55V56H403V55V54H391V55ZM403 55H404V53H403H402V55H403ZM403 53V54H404V53V52H403V53ZM446 145V144H392V145V146H446V145ZM338 101H339V89H338H337V101H338ZM338 89V88H335V89V90H338V89ZM335 89H336V53.0001H335H334V89H335ZM335 185H336V101H335H334V185H335ZM335 101V102H338V101V100H335V101ZM404 53H403V105H404H405V53H404ZM446 195H447V145H446H445V195H446ZM491 195V194H446V195V196H491V195ZM491 145H490V195H491H492V145H491ZM528 145V144H491V145V146H528V145ZM528 225H529V145H528H527V225H528ZM586 225V224H528V225V226H586V225ZM897 130H896V145H897H898V130H897ZM894 130V131H897V130V129H894V130ZM894 120H893V130H894H895V120H894ZM897 118H896V120H897H898V118H897ZM897 120V119H894V120V121H897V120ZM876 105V106H878V105V104H876V105ZM878 105H877V108H878H879V105H878ZM878 108V109H890V108V107H878V108ZM890 108H891V105H890H889V108H890ZM890 105V106H936V105V104H890V105ZM939 118V117H897V118V119H939V118ZM936 105H935V108H936H937V105H936ZM936 108V109H948V108V107H936V108ZM939 115H938V118H939H940V115H939ZM949 115V114H939V115V116H949V115ZM949 106H948V115H949H950V106H949ZM948 108H949V105H948H947V108H948ZM948 105V106H950V105V104H948V105ZM950 105H949V106H950H951V105H950ZM950 106V105H949V106V107H950V106ZM897 145V146H950V145V144H897V145ZM950 145H949V211H950H951V145H950ZM950 211V210H949V211V212H950V211ZM949 211H950V208H949H948V211H949ZM949 208V207H937V208V209H949V208ZM937 208H936V211H937H938V208H937ZM937 211V210H907V211V212H937V211ZM907 211H908V183H907H906V211H907ZM767 180V179H755V180V181H767V180ZM767 183H768V180H767H766V183H767ZM755 180H754V183H755H756V180H755ZM755 183V182H706V183V184H755V183ZM706 183H707V180H706H705V183H706ZM706 180V179H694V180V181H706V180ZM694 180H693V183H694H695V180H694ZM645 180V179H633V180V181H645V180ZM694 183V182H645V183V184H694V183ZM645 183H646V180H645H644V183H645ZM633 180H632V183H633H634V180H633ZM633 183V182H586V183V184H633V183ZM811 180H810V183H811H812V180H811ZM811 183V182H767V183V184H811V183ZM823 180V179H811V180V181H823V180ZM823 183H824V180H823H822V183H823ZM861 180H860V183H861H862V180H861ZM861 183V182H823V183V184H861V183ZM873 180V179H861V180V181H873V180ZM873 183H874V180H873H872V183H873ZM893 180H892V183H893H894V180H893ZM893 183V182H873V183V184H893V183ZM905 180V179H893V180V181H905V180ZM907 183V182H905V183V184H907V183ZM905 183H906V180H905H904V183H905ZM645 108H646V105H645H644V108H645ZM633 108V109H645V108V107H633V108ZM633 105H632V108H633H634V105H633ZM755 108V109H767V108V107H755V108ZM767 108H768V105H767H766V108H767ZM767 105V106H786V105V104H767V105ZM786 105H785V108H786H787V105H786ZM786 108V109H798V108V107H786V108ZM798 108H799V105H798H797V108H798ZM854 108V109H873V108V107H854V108ZM873 108H874V105H873H872V108H873ZM873 105V106H876V105V104H873V105ZM798 105V106H854V105V104H798V105ZM854 105H853V108H854H855V105H854ZM755 105H754V108H755H756V105H755ZM706 108H707V105H706H705V108H706ZM706 105V106H755V105V104H706V105ZM694 108V109H706V108V107H694V108ZM645 105V106H694V105V104H645V105ZM694 105H693V108H694H695V105H694ZM584 108H585V105H584H583V108H584ZM584 105V106H633V105V104H584V105ZM572 108V109H584V108V107H572V108ZM572 105H571V108H572H573V105H572ZM523 108H524V105H523H522V108H523ZM523 105V106H572V105V104H523V105ZM511 108V109H523V108V107H511V108ZM511 105H510V108H511H512V105H511ZM462 108H463V105H462H461V108H462ZM462 105V106H511V105V104H462V105ZM450 108V109H462V108V107H450V108ZM404 105V106H450V105V104H404V105ZM450 105H449V108H450H451V105H450ZM384 64H385V54H384H383V64H384ZM384 54V53H381V54V55H384V54ZM381 54H382V53H381H380V54H381ZM381 53L381 54L384 54.0001L384 53.0001L384 52.0001L381 52L381 53ZM586 183H585V225H586H587V183H586Z" fill="#3F5E5E" mask="url(#path-73-inside-1_100_21)"/>
</g>
<rect id="Rectangle 652" x="410" y="196" width="2" height="22" fill="#B1ADAD"/>
</g>
</svg>
