<svg width="965" height="272" viewBox="0 0 965 272" fill="none" xmlns="http://www.w3.org/2000/svg">
<g id="HPSB8">
<path id="Rectangle 305" d="M49 182.247H61V188.247H49V182.247Z" fill="#D9D9D9"/>
<path id="Rectangle 306" d="M115 182.247H127V188.247H115V182.247Z" fill="#D9D9D9"/>
<path id="Rectangle 308" d="M249 182.247H261V188.247H249V182.247Z" fill="#D9D9D9"/>
<path id="Rectangle 311" d="M318 182.247H330V188.247H318V182.247Z" fill="#D9D9D9"/>
<path id="Rectangle 307" d="M180 181.247H192V187.247H180V181.247Z" fill="#D9D9D9"/>
<path id="16" d="M936.796 211.747V214.747H949.5V270.747H907.5V211.747H936.796Z" fill="#772C15" stroke="#FF8D4F"/>
<path id="10827 Janitors Closet" d="M379.5 51.7471V52.7471H376.5V63.7471H379.5V73.7471H368.5V77.7471H358.5V51.7471H379.5Z" fill="#2F3332" stroke="#B1ADAD"/>
<rect id="22208" x="527.5" y="224.747" width="57" height="46" fill="#1D4427" stroke="#68EC89"/>
<path id="Rectangle 356" d="M333.5 0.74707V88.0332H330.5V100.805H333.5V102.747H312.5V0.74707H333.5Z" fill="#2F3332" stroke="#B1ADAD"/>
<g id="HPSB8_2">
<mask id="path-10-inside-1_100_23" fill="white">
<path d="M0 185.247L49 185.747V188.247H61V185.247H115V188.247H127V185.247H180.045V187.247H192V185.247H249V188.247H261V185.247H318V188.247H330V185.247H334V100.247H337V88.2471H334V51.2471H335V54.2471H347V51.2471H358V103.247H380V63.2471H383V53.2471H380V51.2471H390V54.2471H402V51.2471H403V105.247H449V108.247H461V105.247H513V108.247H525V105.247H577V108.247H589V105.247H643V108.247H655V105.247H716V108.247H728V105.247H787V108.247H799V105.247H823H862V108.247H874V105.247H876H878V108.247H890V105.247H934V108.247H945V105.247H950V107.247H948V116.247H936V118.247H896V121.247H893V131.247H896V145.247H950V211.247H949V208.247H938V211.247H907V183.247H905V180.247H893V183.247H825V180.247H813V183.247H771H721V180.247H709V183.247H631V180.247H619V183.247H613V180.247H601V183.247H585V224.247H527V144.247H491V195.247H445.026V144.247H392V168.247H389V178.247H392V185.247H395V197.247H392V216.247H395V271.247H66V216.247H53V214.247H43V216.247H42V206.247H15V203.247H3V206.247H0V185.247Z"/>
</mask>
<path d="M0 185.247L49 185.747V188.247H61V185.247H115V188.247H127V185.247H180.045V187.247H192V185.247H249V188.247H261V185.247H318V188.247H330V185.247H334V100.247H337V88.2471H334V51.2471H335V54.2471H347V51.2471H358V103.247H380V63.2471H383V53.2471H380V51.2471H390V54.2471H402V51.2471H403V105.247H449V108.247H461V105.247H513V108.247H525V105.247H577V108.247H589V105.247H643V108.247H655V105.247H716V108.247H728V105.247H787V108.247H799V105.247H823H862V108.247H874V105.247H876H878V108.247H890V105.247H934V108.247H945V105.247H950V107.247H948V116.247H936V118.247H896V121.247H893V131.247H896V145.247H950V211.247H949V208.247H938V211.247H907V183.247H905V180.247H893V183.247H825V180.247H813V183.247H771H721V180.247H709V183.247H631V180.247H619V183.247H613V180.247H601V183.247H585V224.247H527V144.247H491V195.247H445.026V144.247H392V168.247H389V178.247H392V185.247H395V197.247H392V216.247H395V271.247H66V216.247H53V214.247H43V216.247H42V206.247H15V203.247H3V206.247H0V185.247Z" fill="#182626"/>
<path d="M876 145.247H875.5V145.747H876V145.247ZM876 105.247H875.5V145.247H876H876.5V105.247H876ZM876 145.247V145.747H881V145.247V144.747H876V145.247ZM0 185.247L0.0102036 184.247L-1 184.237V185.247H0ZM115 185.247H116V184.247H115V185.247ZM395 271.247V272.247H396V271.247H395ZM0 206.247H-1V207.247H0V206.247ZM15 206.247H14V207.247H15V206.247ZM15 203.247H16V202.247H15V203.247ZM3 203.247V202.247H2V203.247H3ZM3 206.247V207.247H4V206.247H3ZM49 188.247H48V189.247H49V188.247ZM61 188.247V189.247H62V188.247H61ZM61 185.247V184.247H60V185.247H61ZM49 185.747H50V184.757L49.0102 184.747L49 185.747ZM42 206.247H43V205.247H42V206.247ZM42 216.247H41V217.247H42V216.247ZM43 214.247V213.247H42V214.247H43ZM43 216.247V217.247H44V216.247H43ZM53 214.247H54V213.247H53V214.247ZM53 216.247H52V217.247H53V216.247ZM66 216.247H67V215.247H66V216.247ZM66 271.247H65V272.247H66V271.247ZM330 185.247V184.247H329V185.247H330ZM249 188.247H248V189.247H249V188.247ZM180.045 185.247H181.045V184.247H180.045V185.247ZM127 185.247V184.247H126V185.247H127ZM192 187.247V188.247H193V187.247H192ZM249 185.247H250V184.247H249V185.247ZM115 188.247H114V189.247H115V188.247ZM127 188.247V189.247H128V188.247H127ZM180.045 187.247H179.045V188.247H180.045V187.247ZM192 185.247V184.247H191V185.247H192ZM318 185.247H319V184.247H318V185.247ZM261 185.247V184.247H260V185.247H261ZM261 188.247V189.247H262V188.247H261ZM318 188.247H317V189.247H318V188.247ZM330 188.247V189.247H331V188.247H330ZM395 216.247H396V215.247H395V216.247ZM392 216.247H391V217.247H392V216.247ZM334 100.247V99.2471H333V100.247H334ZM334 185.247V186.247H335V185.247H334ZM392 178.247H393V177.247H392V178.247ZM358 103.247H357V104.247H358V103.247ZM395 197.247V198.247H396V197.247H395ZM395 185.247H396V184.247H395V185.247ZM392 197.247V196.247H391V197.247H392ZM392 144.247V143.247H391V144.247H392ZM392 185.247H391V186.247H392V185.247ZM389 178.247H388V179.247H389V178.247ZM389 168.247V167.247H388V168.247H389ZM392 168.247V169.247H393V168.247H392ZM449 108.247H448V109.247H449V108.247ZM403 105.247H402V106.247H403V105.247ZM491 144.247V143.247H490V144.247H491ZM461 105.247V104.247H460V105.247H461ZM445.026 144.247H446.026V143.247H445.026V144.247ZM445.026 195.247H444.026V196.247H445.026V195.247ZM513 108.247H512V109.247H513V108.247ZM461 108.247V109.247H462V108.247H461ZM449 105.247H450V104.247H449V105.247ZM337 100.247V101.247H338V100.247H337ZM337 88.2471H338V87.2471H337V88.2471ZM358 51.2471H359V50.2471H358V51.2471ZM334 51.2471V50.2471H333V51.2471H334ZM334 88.2471H333V89.2471H334V88.2471ZM347 51.2471V50.2471H346V51.2471H347ZM335 51.2471H336V50.2471H335V51.2471ZM335 54.2471H334V55.2471H335V54.2471ZM347 54.2471V55.2471H348V54.2471H347ZM380 103.247V104.247H381V103.247H380ZM380 63.2471V62.2471H379V63.2471H380ZM403 51.2471H404V50.2471H403V51.2471ZM383 53.2471H384V52.2471H383V53.2471ZM383 63.2471V64.2471H384V63.2471H383ZM402 51.2471V50.2471H401V51.2471H402ZM402 54.2471V55.2471H403V54.2471H402ZM390 54.2471H389V55.2471H390V54.2471ZM390 51.2471H391V50.2471H390V51.2471ZM380 51.2471V50.2471H379V51.2471H380ZM380 53.2471H379V54.2471H380V53.2471ZM491 195.247V196.247H492V195.247H491ZM513 105.247H514V104.247H513V105.247ZM527 144.247H528V143.247H527V144.247ZM525 108.247V109.247H526V108.247H525ZM525 105.247V104.247H524V105.247H525ZM577 105.247H578V104.247H577V105.247ZM577 108.247H576V109.247H577V108.247ZM585 224.247V225.247H586V224.247H585ZM527 224.247H526V225.247H527V224.247ZM585 183.247V182.247H584V183.247H585ZM728 105.247V104.247H727V105.247H728ZM613 180.247H614V179.247H613V180.247ZM601 183.247V184.247H602V183.247H601ZM601 180.247V179.247H600V180.247H601ZM787 105.247H788V104.247H787V105.247ZM619 183.247V184.247H620V183.247H619ZM613 183.247H612V184.247H613V183.247ZM631 180.247H632V179.247H631V180.247ZM619 180.247V179.247H618V180.247H619ZM631 183.247H630V184.247H631V183.247ZM643 108.247H642V109.247H643V108.247ZM643 105.247H644V104.247H643V105.247ZM589 108.247V109.247H590V108.247H589ZM589 105.247V104.247H588V105.247H589ZM716 105.247H717V104.247H716V105.247ZM655 108.247V109.247H656V108.247H655ZM655 105.247V104.247H654V105.247H655ZM728 108.247V109.247H729V108.247H728ZM716 108.247H715V109.247H716V108.247ZM709 183.247V184.247H710V183.247H709ZM709 180.247V179.247H708V180.247H709ZM721 180.247H722V179.247H721V180.247ZM721 183.247H720V184.247H721V183.247ZM799 105.247V104.247H798V105.247H799ZM787 108.247H786V109.247H787V108.247ZM799 108.247V109.247H800V108.247H799ZM862 108.247H861V109.247H862V108.247ZM862 105.247H863V104.247H862V105.247ZM874 108.247V109.247H875V108.247H874ZM874 105.247V104.247H873V105.247H874ZM893 183.247V184.247H894V183.247H893ZM813 183.247V184.247H814V183.247H813ZM813 180.247V179.247H812V180.247H813ZM825 180.247H826V179.247H825V180.247ZM825 183.247H824V184.247H825V183.247ZM950 145.247H951V144.247H950V145.247ZM896 145.247H895V146.247H896V145.247ZM905 180.247H906V179.247H905V180.247ZM907 183.247H908V182.247H907V183.247ZM893 180.247V179.247H892V180.247H893ZM905 183.247H904V184.247H905V183.247ZM893 131.247H892V132.247H893V131.247ZM896 131.247H897V130.247H896V131.247ZM878 105.247H879V104.247H878V105.247ZM878 108.247H877V109.247H878V108.247ZM890 108.247V109.247H891V108.247H890ZM893 121.247V120.247H892V121.247H893ZM896 121.247V122.247H897V121.247H896ZM936 118.247V119.247H937V118.247H936ZM896 118.247V117.247H895V118.247H896ZM934 105.247H935V104.247H934V105.247ZM890 105.247V104.247H889V105.247H890ZM934 108.247H933V109.247H934V108.247ZM936 116.247V115.247H935V116.247H936ZM945 108.247V109.247H946V108.247H945ZM948 116.247V117.247H949V116.247H948ZM948 107.247V106.247H947V107.247H948ZM945 105.247V104.247H944V105.247H945ZM950 105.247H951V104.247H950V105.247ZM950 107.247V108.247H951V107.247H950ZM950 211.247V212.247H951V211.247H950ZM938 211.247V212.247H939V211.247H938ZM938 208.247V207.247H937V208.247H938ZM949 208.247H950V207.247H949V208.247ZM949 211.247H948V212.247H949V211.247ZM907 211.247H906V212.247H907V211.247ZM0 206.247H1V185.247H0H-1V206.247H0ZM15 206.247H16V203.247H15H14V206.247H15ZM15 203.247V202.247H3V203.247V204.247H15V203.247ZM3 203.247H2V206.247H3H4V203.247H3ZM3 206.247V205.247H0V206.247V207.247H3V206.247ZM49 188.247V189.247H61V188.247V187.247H49V188.247ZM61 188.247H62V185.247H61H60V188.247H61ZM61 185.247V186.247H115V185.247V184.247H61V185.247ZM0 185.247L-0.0102036 186.247L48.9898 186.747L49 185.747L49.0102 184.747L0.0102036 184.247L0 185.247ZM49 185.747H48V188.247H49H50V185.747H49ZM42 206.247V205.247H15V206.247V207.247H42V206.247ZM42 216.247H43V206.247H42H41V216.247H42ZM43 214.247H42V216.247H43H44V214.247H43ZM43 216.247V215.247H42V216.247V217.247H43V216.247ZM53 214.247V213.247H43V214.247V215.247H53V214.247ZM53 216.247H54V214.247H53H52V216.247H53ZM66 216.247V215.247H53V216.247V217.247H66V216.247ZM395 271.247V270.247H66V271.247V272.247H395V271.247ZM66 271.247H67V216.247H66H65V271.247H66ZM127 185.247V186.247H180.045V185.247V184.247H127V185.247ZM249 185.247H248V188.247H249H250V185.247H249ZM115 185.247H114V188.247H115H116V185.247H115ZM115 188.247V189.247H127V188.247V187.247H115V188.247ZM127 188.247H128V185.247H127H126V188.247H127ZM180.045 185.247H179.045V187.247H180.045H181.045V185.247H180.045ZM180.045 187.247V188.247H192V187.247V186.247H180.045V187.247ZM192 187.247H193V185.247H192H191V187.247H192ZM192 185.247V186.247H249V185.247V184.247H192V185.247ZM261 185.247V186.247H318V185.247V184.247H261V185.247ZM249 188.247V189.247H261V188.247V187.247H249V188.247ZM261 188.247H262V185.247H261H260V188.247H261ZM318 185.247H317V188.247H318H319V185.247H318ZM318 188.247V189.247H330V188.247V187.247H318V188.247ZM330 188.247H331V185.247H330H329V188.247H330ZM395 216.247H394V271.247H395H396V216.247H395ZM392 216.247V217.247H395V216.247V215.247H392V216.247ZM330 185.247V186.247H334V185.247V184.247H330V185.247ZM334 185.247H335V100.247H334H333V185.247H334ZM395 185.247H394V197.247H395H396V185.247H395ZM395 197.247V196.247H392V197.247V198.247H395V197.247ZM392 197.247H391V216.247H392H393V197.247H392ZM392 178.247H391V185.247H392H393V178.247H392ZM392 185.247V186.247H395V185.247V184.247H392V185.247ZM389 178.247V179.247H392V178.247V177.247H389V178.247ZM389 168.247H388V178.247H389H390V168.247H389ZM392 144.247H391V168.247H392H393V144.247H392ZM392 168.247V167.247H389V168.247V169.247H392V168.247ZM445.026 144.247V143.247H392V144.247V145.247H445.026V144.247ZM445.026 195.247H446.026V144.247H445.026H444.026V195.247H445.026ZM449 108.247V109.247H461V108.247V107.247H449V108.247ZM461 108.247H462V105.247H461H460V108.247H461ZM403 105.247V106.247H449V105.247V104.247H403V105.247ZM449 105.247H448V108.247H449H450V105.247H449ZM334 100.247V101.247H337V100.247V99.2471H334V100.247ZM337 100.247H338V88.2471H337H336V100.247H337ZM358 51.2471H357V103.247H358H359V51.2471H358ZM337 88.2471V87.2471H334V88.2471V89.2471H337V88.2471ZM334 88.2471H335V51.2471H334H333V88.2471H334ZM347 51.2471V52.2471H358V51.2471V50.2471H347V51.2471ZM334 51.2471V52.2471H335V51.2471V50.2471H334V51.2471ZM335 51.2471H334V54.2471H335H336V51.2471H335ZM335 54.2471V55.2471H347V54.2471V53.2471H335V54.2471ZM347 54.2471H348V51.2471H347H346V54.2471H347ZM358 103.247V104.247H380V103.247V102.247H358V103.247ZM380 103.247H381V63.2471H380H379V103.247H380ZM403 51.2471H402V105.247H403H404V51.2471H403ZM380 63.2471V64.2471H383V63.2471V62.2471H380V63.2471ZM383 63.2471H384V53.2471H383H382V63.2471H383ZM402 51.2471V52.2471H403V51.2471V50.2471H402V51.2471ZM402 54.2471H403V51.2471H402H401V54.2471H402ZM390 54.2471V55.2471H402V54.2471V53.2471H390V54.2471ZM390 51.2471H389V54.2471H390H391V51.2471H390ZM380 51.2471V52.2471H390V51.2471V50.2471H380V51.2471ZM383 53.2471V52.2471H380V53.2471V54.2471H383V53.2471ZM380 53.2471H381V51.2471H380H379V53.2471H380ZM491 144.247H490V195.247H491H492V144.247H491ZM491 195.247V194.247H445.026V195.247V196.247H491V195.247ZM461 105.247V106.247H513V105.247V104.247H461V105.247ZM513 105.247H512V108.247H513H514V105.247H513ZM527 144.247V143.247H491V144.247V145.247H527V144.247ZM513 108.247V109.247H525V108.247V107.247H513V108.247ZM525 108.247H526V105.247H525H524V108.247H525ZM525 105.247V106.247H577V105.247V104.247H525V105.247ZM577 105.247H576V108.247H577H578V105.247H577ZM585 224.247V223.247H527V224.247V225.247H585V224.247ZM527 224.247H528V144.247H527H526V224.247H527ZM585 183.247H584V224.247H585H586V183.247H585ZM601 183.247V182.247H585V183.247V184.247H601V183.247ZM613 180.247V179.247H601V180.247V181.247H613V180.247ZM601 180.247H600V183.247H601H602V180.247H601ZM728 105.247V106.247H787V105.247V104.247H728V105.247ZM619 183.247V182.247H613V183.247V184.247H619V183.247ZM613 183.247H614V180.247H613H612V183.247H613ZM631 180.247V179.247H619V180.247V181.247H631V180.247ZM619 180.247H618V183.247H619H620V180.247H619ZM631 183.247H632V180.247H631H630V183.247H631ZM643 105.247H642V108.247H643H644V105.247H643ZM577 108.247V109.247H589V108.247V107.247H577V108.247ZM589 108.247H590V105.247H589H588V108.247H589ZM589 105.247V106.247H643V105.247V104.247H589V105.247ZM643 108.247V109.247H655V108.247V107.247H643V108.247ZM655 108.247H656V105.247H655H654V108.247H655ZM655 105.247V106.247H716V105.247V104.247H655V105.247ZM728 108.247H729V105.247H728H727V108.247H728ZM716 105.247H715V108.247H716H717V105.247H716ZM716 108.247V109.247H728V108.247V107.247H716V108.247ZM709 183.247V182.247H631V183.247V184.247H709V183.247ZM709 180.247H708V183.247H709H710V180.247H709ZM721 180.247V179.247H709V180.247V181.247H721V180.247ZM721 183.247H722V180.247H721H720V183.247H721ZM771 183.247V182.247H721V183.247V184.247H771V183.247ZM787 105.247H786V108.247H787H788V105.247H787ZM787 108.247V109.247H799V108.247V107.247H787V108.247ZM799 108.247H800V105.247H799H798V108.247H799ZM799 105.247V106.247H823V105.247V104.247H799V105.247ZM823 105.247V106.247H862V105.247V104.247H823V105.247ZM862 105.247H861V108.247H862H863V105.247H862ZM862 108.247V109.247H874V108.247V107.247H862V108.247ZM874 108.247H875V105.247H874H873V108.247H874ZM874 105.247V106.247H876V105.247V104.247H874V105.247ZM813 183.247V182.247H771V183.247V184.247H813V183.247ZM813 180.247H812V183.247H813H814V180.247H813ZM825 180.247V179.247H813V180.247V181.247H825V180.247ZM893 183.247V182.247H825V183.247V184.247H893V183.247ZM825 183.247H826V180.247H825H824V183.247H825ZM896 145.247V146.247H950V145.247V144.247H896V145.247ZM905 180.247V179.247H893V180.247V181.247H905V180.247ZM893 180.247H892V183.247H893H894V180.247H893ZM907 183.247V182.247H905V183.247V184.247H907V183.247ZM905 183.247H906V180.247H905H904V183.247H905ZM893 131.247V132.247H896V131.247V130.247H893V131.247ZM896 131.247H895V145.247H896H897V131.247H896ZM876 105.247V106.247H878V105.247V104.247H876V105.247ZM878 105.247H877V108.247H878H879V105.247H878ZM878 108.247V109.247H890V108.247V107.247H878V108.247ZM893 121.247H892V131.247H893H894V121.247H893ZM896 121.247V120.247H893V121.247V122.247H896V121.247ZM936 118.247V117.247H896V118.247V119.247H936V118.247ZM896 118.247H895V121.247H896H897V118.247H896ZM890 108.247H891V105.247H890H889V108.247H890ZM890 105.247V106.247H934V105.247V104.247H890V105.247ZM934 105.247H933V108.247H934H935V105.247H934ZM936 116.247H935V118.247H936H937V116.247H936ZM934 108.247V109.247H945V108.247V107.247H934V108.247ZM948 116.247V115.247H936V116.247V117.247H948V116.247ZM948 107.247H947V116.247H948H949V107.247H948ZM945 108.247H946V105.247H945H944V108.247H945ZM945 105.247V106.247H950V105.247V104.247H945V105.247ZM950 105.247H949V107.247H950H951V105.247H950ZM950 107.247V106.247H948V107.247V108.247H950V107.247ZM950 145.247H949V211.247H950H951V145.247H950ZM938 208.247H937V211.247H938H939V208.247H938ZM949 208.247V207.247H938V208.247V209.247H949V208.247ZM950 211.247V210.247H949V211.247V212.247H950V211.247ZM949 211.247H950V208.247H949H948V211.247H949ZM938 211.247V210.247H907V211.247V212.247H938V211.247ZM907 211.247H908V183.247H907H906V211.247H907Z" fill="#3F5E5E" mask="url(#path-10-inside-1_100_23)"/>
</g>
<path id="Rectangle 316" d="M588.5 102.747V107.747H577.5V102.747H588.5Z" fill="#203003" stroke="#4A3E0F"/>
<path id="Rectangle 350" d="M408.5 144.747V184.747H392.5V178.747H395.5V167.747H392.5V144.747H408.5Z" fill="#2F3332" stroke="#B1ADAD"/>
<path id="Rectangle 342" d="M2.5 206.747V209.747H15.5V206.747H41.5V270.747H0.5V206.747H2.5Z" fill="#2F3332" stroke="#B1ADAD"/>
<path id="15" d="M2.5 206.747V209.747H15.5V206.747H41.5V270.747H0.5V206.747H2.5Z" fill="#772C15" stroke="#D6784A"/>
<path id="Rectangle 312" d="M346.5 48.7471V53.7471H335.5V48.7471H346.5Z" fill="#203003" stroke="#4A3E0F"/>
<path id="Rectangle 313" d="M401.5 48.7471V53.7471H390.5V48.7471H401.5Z" fill="#203003" stroke="#4A3E0F"/>
<path id="Rectangle 314" d="M460.5 102.747V107.747H449.5V102.747H460.5Z" fill="#203003" stroke="#4A3E0F"/>
<path id="Rectangle 315" d="M524.5 102.747V107.747H513.5V102.747H524.5Z" fill="#203003" stroke="#4A3E0F"/>
<path id="Rectangle 317" d="M654.5 102.747V107.747H643.5V102.747H654.5Z" fill="#203003" stroke="#4A3E0F"/>
<path id="Rectangle 318" d="M727.5 102.747V107.747H716.5V102.747H727.5Z" fill="#203003" stroke="#4A3E0F"/>
<rect id="Rectangle 319" x="787" y="102.247" width="12" height="6" fill="#D9D9D9"/>
<rect id="Rectangle 323" x="787.5" y="102.747" width="11" height="5" fill="#203003" stroke="#4A3E0F"/>
<rect id="Rectangle 320" x="862.5" y="102.747" width="11" height="5" fill="#203003" stroke="#4A3E0F"/>
<path id="Rectangle 321" d="M889.5 102.747V107.747H878.5V102.747H889.5Z" fill="#203003" stroke="#4A3E0F"/>
<rect id="Rectangle 322" x="934.5" y="102.747" width="10" height="5" fill="#203003" stroke="#4A3E0F"/>
<path id="Rectangle 377" d="M947.5 116.747V121.747H936.5V116.747H947.5Z" fill="#203003" stroke="#4A3E0F"/>
<path id="Rectangle 379" d="M898.5 121.747V130.747H893.5V121.747H898.5Z" fill="#203003" stroke="#4A3E0F"/>
<rect id="Rectangle 324" x="937.5" y="208.747" width="11" height="5" fill="#203003" stroke="#4A3E0F"/>
<rect id="Rectangle 325" x="893.5" y="180.747" width="11" height="5" fill="#203003" stroke="#4A3E0F"/>
<rect id="Rectangle 326" x="813.5" y="180.747" width="11" height="5" fill="#203003" stroke="#4A3E0F"/>
<rect id="Rectangle 327" x="709.5" y="180.747" width="11" height="5" fill="#203003" stroke="#4A3E0F"/>
<rect id="Rectangle 328" x="619.5" y="180.747" width="11" height="5" fill="#203003" stroke="#4A3E0F"/>
<rect id="Rectangle 332" x="601.5" y="180.747" width="11" height="5" fill="#203003" stroke="#4A3E0F"/>
<rect id="Rectangle 333" x="618" y="237.247" width="10" height="6" fill="#D9D9D9"/>
<rect id="Rectangle 334" x="389.5" y="168.747" width="5" height="9" fill="#203003" stroke="#4A3E0F"/>
<rect id="Rectangle 335" x="392.5" y="197.747" width="5" height="18" fill="#203003" stroke="#4A3E0F"/>
<rect id="Rectangle 336" x="3.5" y="203.747" width="11" height="5" fill="#203003" stroke="#4A3E0F"/>
<rect id="Rectangle 337" x="43.5" y="214.747" width="9" height="5" fill="#203003" stroke="#4A3E0F"/>
<rect id="Rectangle 338" x="377.5" y="53.7471" width="5" height="9" fill="#203003" stroke="#4A3E0F"/>
<path id="Rectangle 339" d="M378.5 74.2471V79.2471H369.5V74.2471H378.5Z" fill="#203003" stroke="#4A3E0F"/>
<rect id="Rectangle 340" x="331.5" y="88.7471" width="5" height="11" fill="#203003" stroke="#4A3E0F"/>
<path id="10830 Storage" d="M65.5 216.747V270.747H42.5V220.747H53.5V216.747H65.5Z" fill="#2F3332" stroke="#B1ADAD"/>
<path id="10801" d="M65.5 102.747V184.747H61.5V181.747H48.5V185.241L0.5 184.752V102.747H65.5Z" fill="#2F3332" stroke="#B1ADAD"/>
<path id="10802" d="M131.5 102.747V184.747H127.5V181.747H114.5V184.747H66.5V102.747H131.5Z" fill="#2F3332" stroke="#B1ADAD"/>
<path id="10803" d="M196.5 102.747V184.747H192.5V180.747H179.5V184.747H132.5V102.747H196.5Z" fill="#2F3332" stroke="#B1ADAD"/>
<path id="10804" d="M265.5 102.747V184.747H261.5V181.747H248.5V184.747H197.5V102.747H265.5Z" fill="#2F3332" stroke="#B1ADAD"/>
<path id="10805" d="M333.5 102.747V184.747H330.5V181.747H317.5V184.747H266.5V102.747H333.5Z" fill="#2F3332" stroke="#B1ADAD"/>
<path id="10806" d="M408.5 195.747H526.5V270.747H395.5V216.747H398.5V196.747H395.5V185.729L408.5 185.265V195.747Z" fill="#2F3332" stroke="#B1ADAD"/>
<rect id="10824" x="409.5" y="144.747" width="35" height="50" fill="#1D4427" stroke="#68EC89"/>
<rect id="10823" x="491.5" y="144.747" width="35" height="50" fill="#1D4427" stroke="#68EC89"/>
<path id=" 10828" d="M368.5 0.74707V50.7471H347.5V47.8047H334.5V0.74707H368.5Z" fill="#2F182D" stroke="#773B72"/>
<path id="Rectangle 359" d="M368.5 78.7471V80.2471H379.5V102.747H358.5V78.7471H368.5Z" fill="#2F3332" stroke="#B1ADAD"/>
<path id="10807" d="M463.5 0.74707V104.747H461.5V101.747H448.5V104.747H403.5V0.74707H463.5Z" fill="#2F3332" stroke="#B1ADAD"/>
<path id="10808" d="M526.5 0.74707V104.747H525.5V101.747H512.5V104.747H464.5V0.74707H526.5Z" fill="#2F3332" stroke="#B1ADAD"/>
<path id="10809" d="M590.5 0.74707V104.747H589.5V101.747H576.5V104.747H527.5V0.74707H590.5Z" fill="#2F3332" stroke="#B1ADAD"/>
<path id="10810" d="M656.5 0.74707V104.747H655.5V101.747H642.5V104.747H591.5V0.74707H656.5Z" fill="#2F3332" stroke="#B1ADAD"/>
<path id="10811" d="M729.5 0.74707V104.747H728.5V101.747H715.5V104.747H657.5V0.74707H729.5Z" fill="#2F3332" stroke="#B1ADAD"/>
<path id="10812" d="M801.5 0.74707V104.747H799.5V101.747H786.5V104.747H730.5V0.74707H801.5Z" fill="#2F3332" stroke="#B1ADAD"/>
<path id="10813" d="M875.5 0.74707V104.747H874.5V101.747H861.5V104.747H802.5V0.74707H875.5Z" fill="#2F3332" stroke="#B1ADAD"/>
<path id="10818" d="M912.5 0.74707V104.747H890.5V101.747H877.5V104.747H876.5V0.74707H912.5Z" fill="#2F182D" stroke="#6B386E"/>
<path id="10819" d="M949.5 0.74707V104.747H945.5V101.747H933.5V104.747H913.5V0.74707H949.5Z" fill="#162433" stroke="#141A30"/>
<path id="10829" d="M402.5 0.74707V47.7471H389.5V50.7471H370.5V0.74707H402.5Z" fill="#162433" stroke="#1B2550"/>
<path id="Rectangle 370" d="M964.5 0.5V140.5H950.5V117.577H954.5V106.506H950.5V0.5H964.5Z" fill="#2F3332" stroke="#B1ADAD"/>
<rect id="Rectangle 371" x="948.5" y="107.747" width="5" height="9" fill="#203003" stroke="#4A3E0F"/>
<path id="10820" d="M949.5 117.747V144.747H923.5V118.747H935.5V122.747H948.5V117.747H949.5Z" fill="#2F3332" stroke="#B1ADAD"/>
<path id="100108" d="M922.5 118.747V144.747H896.5V131.747H899.5V120.747H896.5V118.747H922.5Z" fill="#2F3332" stroke="#B1ADAD"/>
<rect id="Rectangle 392" x="619.5" y="237.747" width="11" height="5" fill="#203003" stroke="#4A3E0F"/>
<path id="10817" d="M600.5 183.747V186.747H613.5V183.747H615.5V270.747H585.5V183.747H600.5Z" fill="#2F3332" stroke="#B1ADAD"/>
<path id="Rectangle 394" d="M618.5 240.747V243.747H631.5V240.747H638.5V270.747H616.5V240.747H618.5Z" fill="#2F3332" stroke="#B1ADAD"/>
<path id="10816" d="M618.5 183.747V186.747H631.5V183.747H646.5V270.747H639.5V239.747H631.5V236.747H618.5V239.747H616.5V183.747H618.5Z" fill="#2F3332" stroke="#B1ADAD"/>
<path id="10815" d="M708.5 183.747V186.747H721.5V183.747H768.5V270.747H647.5V183.747H708.5Z" fill="#2F3332" stroke="#B1ADAD"/>
<path id="10814" d="M812.5 183.747V186.747H825.5V183.747H875.5V270.747H769.5V183.747H812.5Z" fill="#2F3332" stroke="#B1ADAD"/>
<path id="10822" d="M892.5 183.747V186.747H905.5V183.747H906.5V270.747H876.5V183.747H892.5Z" fill="#2F3332" stroke="#B1ADAD"/>
<rect id="Rectangle 641" x="49.5" y="182.747" width="11" height="5" fill="#203003" stroke="#4A3E0F"/>
<rect id="Rectangle 642" x="115.5" y="182.747" width="11" height="5" fill="#203003" stroke="#4A3E0F"/>
<rect id="Rectangle 643" x="180.5" y="181.747" width="11" height="5" fill="#203003" stroke="#4A3E0F"/>
<rect id="Rectangle 644" x="249.5" y="182.747" width="11" height="5" fill="#203003" stroke="#4A3E0F"/>
<rect id="Rectangle 645" x="318.5" y="182.747" width="11" height="5" fill="#203003" stroke="#4A3E0F"/>
</g>
</svg>
