<svg width="965" height="273" viewBox="0 0 965 273" fill="none" xmlns="http://www.w3.org/2000/svg">
<g id="HPSB6">
<rect id="Rectangle 105" x="3.5" y="205.5" width="11" height="5" fill="#203003" stroke="#4A3E0F"/>
<path id="Rectangle 112" d="M124.5 184.5V189.5H113.5V184.5H124.5Z" fill="#203003" stroke="#4A3E0F"/>
<rect id="Rectangle 113" x="178.5" y="183.5" width="11" height="5" fill="#203003" stroke="#4A3E0F"/>
<rect id="Rectangle 115" x="318.5" y="184.5" width="11" height="5" fill="#203003" stroke="#4A3E0F"/>
<rect id="Rectangle 116" x="331.5" y="90.5" width="5" height="11" fill="#203003" stroke="#4A3E0F"/>
<rect id="Rectangle 118" x="335.5" y="50.5" width="11" height="5" fill="#203003" stroke="#4A3E0F"/>
<rect id="Rectangle 120" x="390.5" y="50.5" width="11" height="5" fill="#203003" stroke="#4A3E0F"/>
<rect id="Rectangle 121" x="449.5" y="104.5" width="11" height="5" fill="#203003" stroke="#4A3E0F"/>
<rect id="Rectangle 122" x="510.5" y="104.5" width="11" height="5" fill="#203003" stroke="#4A3E0F"/>
<rect id="Rectangle 123" x="571.5" y="104.5" width="11" height="5" fill="#203003" stroke="#4A3E0F"/>
<rect id="Rectangle 124" x="632.5" y="104.5" width="11" height="5" fill="#203003" stroke="#4A3E0F"/>
<rect id="Rectangle 128" x="811.5" y="104.5" width="11" height="5" fill="#203003" stroke="#4A3E0F"/>
<rect id="Rectangle 129" x="693.5" y="104.5" width="11" height="5" fill="#203003" stroke="#4A3E0F"/>
<rect id="Rectangle 127" x="754.5" y="104.5" width="11" height="5" fill="#203003" stroke="#4A3E0F"/>
<rect id="Rectangle 130" x="861.5" y="104.5" width="11" height="5" fill="#203003" stroke="#4A3E0F"/>
<rect id="Rectangle 131" x="878.5" y="104.5" width="11" height="5" fill="#203003" stroke="#4A3E0F"/>
<rect id="Rectangle 132" x="935.5" y="104.5" width="11" height="5" fill="#203003" stroke="#4A3E0F"/>
<rect id="Rectangle 146" x="949.5" y="108.5" width="5" height="11" fill="#203003" stroke="#4A3E0F"/>
<rect id="Rectangle 134" x="937.5" y="210.5" width="11" height="5" fill="#203003" stroke="#4A3E0F"/>
<rect id="Rectangle 135" x="893.5" y="182.5" width="11" height="5" fill="#203003" stroke="#4A3E0F"/>
<rect id="Rectangle 140" x="709.5" y="182.5" width="11" height="5" fill="#203003" stroke="#4A3E0F"/>
<rect id="Rectangle 141" x="619.5" y="239.5" width="11" height="5" fill="#203003" stroke="#4A3E0F"/>
<rect id="Rectangle 144" x="724.5" y="255.5" width="5" height="11" fill="#203003" stroke="#4A3E0F"/>
<rect id="Rectangle 145" x="806.5" y="255.5" width="5" height="11" fill="#203003" stroke="#4A3E0F"/>
<rect id="Rectangle 139" x="771.5" y="182.5" width="11" height="5" fill="#203003" stroke="#4A3E0F"/>
<rect id="Rectangle 136" x="813.5" y="182.5" width="11" height="5" fill="#203003" stroke="#4A3E0F"/>
<path id="Rectangle 114" d="M260.5 184.5V189.5H249.5V184.5H260.5Z" fill="#203003" stroke="#4A3E0F"/>
<path id="Rectangle 138" d="M599.5 182.5V187.5H588.5V182.5H599.5Z" fill="#203003" stroke="#4A3E0F"/>
<path id="Rectangle 142" d="M630.5 182.5V187.5H619.5V182.5H630.5Z" fill="#203003" stroke="#4A3E0F"/>
<path id="Rectangle 108" d="M58.5 184.5V189.5H47.5V184.5H58.5Z" fill="#203003" stroke="#4A3E0F"/>
<rect id="Rectangle 106" x="43.5" y="216.5" width="9" height="3" fill="#203003" stroke="#4A3E0F"/>
<rect id="Rectangle 109" x="392.5" y="199.5" width="5" height="18" fill="#203003" stroke="#4A3E0F"/>
<rect id="Rectangle 110" x="389.5" y="170.5" width="5" height="9" fill="#203003" stroke="#4A3E0F"/>
<rect id="Rectangle 147" x="893.5" y="122.5" width="5" height="9" fill="#203003" stroke="#4A3E0F"/>
<rect id="Rectangle 148" x="939.5" y="119.5" width="9" height="5" fill="#203003" stroke="#4A3E0F"/>
<rect id="Rectangle 117" x="377.5" y="55.5" width="5" height="9" fill="#203003" stroke="#4A3E0F"/>
<path id="Rectangle 119" d="M378.5 76.5V81.5H369.5V76.5H378.5Z" fill="#203003" stroke="#4A3E0F"/>
<path id="Rectangle 111" d="M408.5 187.5V197.5H526.5V272.5H395.5V218.5H398.5V198.5H395.5V187.5H408.5Z" fill="#2F3332" stroke="#B1ADAD"/>
<path id="10606 Com Lab" d="M408.5 187.5V197.5H526.5V272.5H395.5V218.5H398.5V198.5H395.5V187.5H408.5Z" fill="#2F3332" stroke="#B1ADAD"/>
<rect id="22206" x="527.5" y="226.5" width="57" height="46" fill="#1D4427" stroke="#68EC89"/>
<rect id="10622" x="409.5" y="146.5" width="35" height="50" fill="#1D4427" stroke="#68EC89"/>
<rect id="10621" x="491.5" y="146.5" width="35" height="50" fill="#1D4427" stroke="#68EC89"/>
<path id="11" d="M2.5 208.5V211.454H15.5V208.5H41.5V272.5H0.5V208.5H2.5Z" fill="#772C15" stroke="#FF8D4F"/>
<path id="10628" d="M65.5 218.5V272.5H42.5V220.5H53.5V218.5H65.5Z" fill="#2F3332" stroke="#B1ADAD"/>
<path id="10601 " d="M65.5 104.5V186.5H59.5V183.5H46.5V186.5H0.5V104.5H65.5Z" fill="#2F3332" stroke="#B1ADAD"/>
<path id="10602" d="M131.5 104.5V186.5H125.5V183.5H112.5V186.5H66.5V104.5H131.5Z" fill="#2F3332" stroke="#B1ADAD"/>
<path id="10603" d="M196.5 104.5V186.5H190.5V182.5H177.5V186.5H132.5V104.5H196.5Z" fill="#2F3332" stroke="#B1ADAD"/>
<path id="10604" d="M265.5 104.5V186.5H261.5V183.5H248.5V186.5H197.5V104.5H265.5Z" fill="#2F3332" stroke="#B1ADAD"/>
<path id="10605" d="M333.5 104.5V186.5H330.5V183.5H317.5V186.5H266.5V104.5H333.5Z" fill="#2F3332" stroke="#B1ADAD"/>
<path id="Rectangle 155" d="M333.5 0.5V89.5H330.5V102.5H333.5V104.5H312.5V0.5H333.5Z" fill="#2F3332" stroke="#B1ADAD"/>
<path id="10625" d="M368.5 0.5V52.5H347.5V49.5H334.5V0.5H368.5Z" fill="#2F182D" stroke="#773B72"/>
<path id="10626" d="M402.5 0.5V49.5H389.5V52.5H369.5V0.5H402.5Z" fill="#162433" stroke="#1B2550"/>
<path id="10624" d="M379.5 53.5V54.5H376.5V65.5H379.5V75.5H368.5V79.5H358.5V53.5H379.5Z" fill="#2F3332" stroke="#B1ADAD"/>
<path id="Rectangle 159" d="M368.5 80.5V82.5H379.5V104.5H358.5V80.5H368.5Z" fill="#2F3332" stroke="#B1ADAD"/>
<path id="10607" d="M463.5 0.5V106.5H461.5V103.5H448.5V106.5H403.5V0.5H463.5Z" fill="#2F3332" stroke="#B1ADAD"/>
<path id="10608" d="M524.5 0.5V106.5H522.5V103.5H509.5V106.5H464.5V0.5H524.5Z" fill="#2F3332" stroke="#B1ADAD"/>
<path id="10609" d="M585.5 0.5V106.5H583.5V103.5H570.5V106.5H525.5V0.5H585.5Z" fill="#2F3332" stroke="#B1ADAD"/>
<path id="10610" d="M646.5 0.5V106.5H644.5V103.5H631.5V106.5H586.5V0.5H646.5Z" fill="#2F3332" stroke="#B1ADAD"/>
<path id="10611" d="M707.5 0.5V106.5H705.5V103.5H692.5V106.5H647.5V0.5H707.5Z" fill="#2F3332" stroke="#B1ADAD"/>
<path id="10611_2" d="M767.5 0.5V106.5H766.5V103.5H753.5V106.5H708.5V0.5H767.5Z" fill="#2F3332" stroke="#B1ADAD"/>
<path id="10612" d="M824.5 0.5V106.5H823.5V103.5H810.5V106.5H768.5V0.5H824.5Z" fill="#2F3332" stroke="#B1ADAD"/>
<path id="10613" d="M875.5 0.5V106.5H873.5V103.5H860.5V106.5H825.5V0.5H875.5Z" fill="#2F3332" stroke="#B1ADAD"/>
<path id="10617" d="M912.5 0.5V106.5H890.5V103.5H877.5V106.5H876.5V0.5H912.5Z" fill="#2F182D" stroke="#6B386E"/>
<path id="10618" d="M949.5 0.5V106.5H947.5V103.5H934.5V106.5H913.5V0.5H949.5Z" fill="#162433" stroke="#141A30"/>
<path id="100106" d="M922.5 120.5V146.5H896.5V132.5H899.5V121.5H896.5V120.5H922.5Z" fill="#2F3332" stroke="#B1ADAD"/>
<path id="10615" d="M812.915 185.5V188.5H826.028V185.5H875.5V272.5H809.877V267.5H812.905V254.5H809.877V252.5H769.5V203.5H811.086V185.5H812.915Z" fill="#2F3332" stroke="#B1ADAD"/>
<path id="Rectangle 180" d="M770.5 185.5V188.5H783.5V185.5H810.5V202.5H769.5V185.5H770.5Z" fill="#2F3332" stroke="#B1ADAD"/>
<rect id="Rectangle 184" x="726.5" y="185.5" width="42" height="17" fill="#2F3332" stroke="#B1ADAD"/>
<path id="Rectangle 182" d="M808.5 253.5V254.5H805.5V267.5H808.5V272.5H769.5V253.5H808.5Z" fill="#2F3332" stroke="#B1ADAD"/>
<path id="Rectangle 183" d="M768.5 253.5V272.5H726.5V267.5H730.5V254.5H726.5V253.5H768.5Z" fill="#2F3332" stroke="#B1ADAD"/>
<path id="10620" d="M892.723 185.5V188.5H905.532V185.5H906.5V272.5H876.5V185.5H892.723Z" fill="#2F3332" stroke="#B1ADAD"/>
<path id="12" d="M936.5 213.5V216.5H949.5V272.5H907.5V213.5H936.5Z" fill="#772C15" stroke="#FF8D4F"/>
<path id="10619 Janitors Closet" d="M938.5 120.5V125.5H949.5V146.5H923.5V120.5H938.5Z" fill="#2F3332" stroke="#B1ADAD"/>
<path id="Rectangle 171" d="M964.5 0.5V142.5H950.5V120.5H955.5V107.5H950.5V0.5H964.5Z" fill="#2F3332" stroke="#B1ADAD"/>
<path id="10623" d="M408.5 146.5V186.5H392.5V180.5H395.5V169.5H392.5V146.5H408.5Z" fill="#2F3332" stroke="#B1ADAD"/>
<path id="10629" d="M587.5 185.5V188.5H600.5V185.5H615.5V272.5H585.5V185.5H587.5Z" fill="#2F3332" stroke="#B1ADAD"/>
<path id="Rectangle 174" d="M618.5 242.5V245.5H631.5V242.5H638.5V272.5H616.5V242.5H618.5Z" fill="#2F3332" stroke="#B1ADAD"/>
<path id="10630" d="M618.5 185.5V188.5H631.5V185.5H646.5V272.5H639.5V241.5H631.5V238.5H618.5V241.5H616.5V185.5H618.5Z" fill="#2F3332" stroke="#B1ADAD"/>
<path id="10616" d="M708.5 185.5V188.5H721.5V185.5H725.5V203.5H768.5V252.5H725.5V254.5H723.5V267.5H725.5V272.5H647.5V185.5H708.5Z" fill="#2F3332" stroke="#B1ADAD"/>
<g id="HPSB6_2">
<mask id="path-80-inside-1_100_25" fill="white">
<path d="M0 187H47V190H59L59.0864 187H113V190H125V187H178V189H190V187H249V190H261V187H318V190H330V187H334V102H337V90H334V53H335V56H347V53H358V105H380V65H383V55H380V53H390V56H402V53H403V107H449V110H461V107H510V110H522V107H571V110H583V107H632V110H644V107H693V110H705V107H754V110H766V107H811V110H823V107H861V110H873V107H876H878V110H890V107H935V110H947V107H950V108H949V119H939V120H896V122H893V132H896V147H950V213H949V210H937V213H907V185H905V182H893V185H825V182H813V185H783V182H771V185H721V182H709V185H631V182H619V185H600V182H588V185H585V226H527V146H491V197H445.026V146H392V170H389V180H392V187H395V199H392V218H395V273H66V218H53V216H43V218H42V208H15V205H3V208H0V187Z"/>
</mask>
<path d="M0 187H47V190H59L59.0864 187H113V190H125V187H178V189H190V187H249V190H261V187H318V190H330V187H334V102H337V90H334V53H335V56H347V53H358V105H380V65H383V55H380V53H390V56H402V53H403V107H449V110H461V107H510V110H522V107H571V110H583V107H632V110H644V107H693V110H705V107H754V110H766V107H811V110H823V107H861V110H873V107H876H878V110H890V107H935V110H947V107H950V108H949V119H939V120H896V122H893V132H896V147H950V213H949V210H937V213H907V185H905V182H893V185H825V182H813V185H783V182H771V185H721V182H709V185H631V182H619V185H600V182H588V185H585V226H527V146H491V197H445.026V146H392V170H389V180H392V187H395V199H392V218H395V273H66V218H53V216H43V218H42V208H15V205H3V208H0V187Z" fill="#182626"/>
<path d="M876 147H875.5V147.5H876V147ZM876 107H875.5V147H876H876.5V107H876ZM876 147V147.5H881V147V146.5H876V147ZM0 187V186H-1V187H0ZM113 187H114V186H113V187ZM395 273V274H396V273H395ZM0 208H-1V209H0V208ZM15 208H14V209H15V208ZM15 205H16V204H15V205ZM3 205V204H2V205H3ZM3 208V209H4V208H3ZM47 190H46V191H47V190ZM59 190V191H59.9716L59.9996 190.029L59 190ZM59.0864 187V186H58.1148L58.0868 186.971L59.0864 187ZM47 187H48V186H47V187ZM42 208H43V207H42V208ZM42 218H41V219H42V218ZM43 216V215H42V216H43ZM43 218V219H44V218H43ZM53 216H54V215H53V216ZM53 218H52V219H53V218ZM66 218H67V217H66V218ZM66 273H65V274H66V273ZM330 187V186H329V187H330ZM249 190H248V191H249V190ZM178 187H179V186H178V187ZM125 187V186H124V187H125ZM190 189V190H191V189H190ZM249 187H250V186H249V187ZM113 190H112V191H113V190ZM125 190V191H126V190H125ZM178 189H177V190H178V189ZM190 187V186H189V187H190ZM318 187H319V186H318V187ZM261 187V186H260V187H261ZM261 190V191H262V190H261ZM318 190H317V191H318V190ZM330 190V191H331V190H330ZM395 218H396V217H395V218ZM392 218H391V219H392V218ZM334 102V101H333V102H334ZM334 187V188H335V187H334ZM392 180H393V179H392V180ZM358 105H357V106H358V105ZM395 199V200H396V199H395ZM395 187H396V186H395V187ZM392 199V198H391V199H392ZM392 146V145H391V146H392ZM392 187H391V188H392V187ZM389 180H388V181H389V180ZM389 170V169H388V170H389ZM392 170V171H393V170H392ZM449 110H448V111H449V110ZM403 107H402V108H403V107ZM491 146V145H490V146H491ZM461 107V106H460V107H461ZM445.026 146H446.026V145H445.026V146ZM445.026 197H444.026V198H445.026V197ZM510 110H509V111H510V110ZM461 110V111H462V110H461ZM449 107H450V106H449V107ZM337 102V103H338V102H337ZM337 90H338V89H337V90ZM358 53H359V52H358V53ZM334 53V52H333V53H334ZM334 90H333V91H334V90ZM347 53V52H346V53H347ZM335 53H336V52H335V53ZM335 56H334V57H335V56ZM347 56V57H348V56H347ZM380 105V106H381V105H380ZM380 65V64H379V65H380ZM403 53H404V52H403V53ZM383 55H384V54H383V55ZM383 65V66H384V65H383ZM402 53V52H401V53H402ZM402 56V57H403V56H402ZM390 56H389V57H390V56ZM390 53H391V52H390V53ZM380 53V52H379V53H380ZM380 55H379V56H380V55ZM491 197V198H492V197H491ZM510 107H511V106H510V107ZM527 146H528V145H527V146ZM522 110V111H523V110H522ZM522 107V106H521V107H522ZM571 107H572V106H571V107ZM571 110H570V111H571V110ZM585 226V227H586V226H585ZM527 226H526V227H527V226ZM585 185V184H584V185H585ZM705 107V106H704V107H705ZM600 182H601V181H600V182ZM588 185V186H589V185H588ZM588 182V181H587V182H588ZM754 107H755V106H754V107ZM619 185V186H620V185H619ZM600 185H599V186H600V185ZM631 182H632V181H631V182ZM619 182V181H618V182H619ZM631 185H630V186H631V185ZM632 110H631V111H632V110ZM632 107H633V106H632V107ZM583 110V111H584V110H583ZM583 107V106H582V107H583ZM693 107H694V106H693V107ZM644 110V111H645V110H644ZM644 107V106H643V107H644ZM705 110V111H706V110H705ZM693 110H692V111H693V110ZM709 185V186H710V185H709ZM709 182V181H708V182H709ZM721 182H722V181H721V182ZM771 182V181H770V182H771ZM721 185H720V186H721V185ZM771 185V186H772V185H771ZM783 182H784V181H783V182ZM811 110H810V111H811V110ZM766 107V106H765V107H766ZM754 110H753V111H754V110ZM766 110V111H767V110H766ZM811 107H812V106H811V107ZM861 110H860V111H861V110ZM823 110V111H824V110H823ZM823 107V106H822V107H823ZM861 107H862V106H861V107ZM873 110V111H874V110H873ZM873 107V106H872V107H873ZM783 185H782V186H783V185ZM893 185V186H894V185H893ZM813 185V186H814V185H813ZM813 182V181H812V182H813ZM825 182H826V181H825V182ZM825 185H824V186H825V185ZM950 147H951V146H950V147ZM896 147H895V148H896V147ZM905 182H906V181H905V182ZM907 185H908V184H907V185ZM893 182V181H892V182H893ZM905 185H904V186H905V185ZM893 132H892V133H893V132ZM896 132H897V131H896V132ZM878 107H879V106H878V107ZM878 110H877V111H878V110ZM890 110V111H891V110H890ZM893 122V121H892V122H893ZM896 122V123H897V122H896ZM939 120V121H940V120H939ZM896 120V119H895V120H896ZM935 107H936V106H935V107ZM890 107V106H889V107H890ZM935 110H934V111H935V110ZM939 119V118H938V119H939ZM947 110V111H948V110H947ZM949 119V120H950V119H949ZM949 108V107H948V108H949ZM947 107V106H946V107H947ZM950 107H951V106H950V107ZM950 108V109H951V108H950ZM950 213V214H951V213H950ZM937 213V214H938V213H937ZM937 210V209H936V210H937ZM949 210H950V209H949V210ZM949 213H948V214H949V213ZM907 213H906V214H907V213ZM0 208H1V187H0H-1V208H0ZM15 208H16V205H15H14V208H15ZM15 205V204H3V205V206H15V205ZM3 205H2V208H3H4V205H3ZM3 208V207H0V208V209H3V208ZM47 190V191H59V190V189H47V190ZM59 190L59.9996 190.029L60.086 187.029L59.0864 187L58.0868 186.971L58.0004 189.971L59 190ZM59.0864 187V188H113V187V186H59.0864V187ZM0 187V188H47V187V186H0V187ZM47 187H46V190H47H48V187H47ZM42 208V207H15V208V209H42V208ZM42 218H43V208H42H41V218H42ZM43 216H42V218H43H44V216H43ZM43 218V217H42V218V219H43V218ZM53 216V215H43V216V217H53V216ZM53 218H54V216H53H52V218H53ZM66 218V217H53V218V219H66V218ZM395 273V272H66V273V274H395V273ZM66 273H67V218H66H65V273H66ZM125 187V188H178V187V186H125V187ZM249 187H248V190H249H250V187H249ZM113 187H112V190H113H114V187H113ZM113 190V191H125V190V189H113V190ZM125 190H126V187H125H124V190H125ZM178 187H177V189H178H179V187H178ZM178 189V190H190V189V188H178V189ZM190 189H191V187H190H189V189H190ZM190 187V188H249V187V186H190V187ZM261 187V188H318V187V186H261V187ZM249 190V191H261V190V189H249V190ZM261 190H262V187H261H260V190H261ZM318 187H317V190H318H319V187H318ZM318 190V191H330V190V189H318V190ZM330 190H331V187H330H329V190H330ZM395 218H394V273H395H396V218H395ZM392 218V219H395V218V217H392V218ZM330 187V188H334V187V186H330V187ZM334 187H335V102H334H333V187H334ZM395 187H394V199H395H396V187H395ZM395 199V198H392V199V200H395V199ZM392 199H391V218H392H393V199H392ZM392 180H391V187H392H393V180H392ZM392 187V188H395V187V186H392V187ZM389 180V181H392V180V179H389V180ZM389 170H388V180H389H390V170H389ZM392 146H391V170H392H393V146H392ZM392 170V169H389V170V171H392V170ZM445.026 146V145H392V146V147H445.026V146ZM445.026 197H446.026V146H445.026H444.026V197H445.026ZM449 110V111H461V110V109H449V110ZM461 110H462V107H461H460V110H461ZM403 107V108H449V107V106H403V107ZM449 107H448V110H449H450V107H449ZM334 102V103H337V102V101H334V102ZM337 102H338V90H337H336V102H337ZM358 53H357V105H358H359V53H358ZM337 90V89H334V90V91H337V90ZM334 90H335V53H334H333V90H334ZM347 53V54H358V53V52H347V53ZM334 53V54H335V53V52H334V53ZM335 53H334V56H335H336V53H335ZM335 56V57H347V56V55H335V56ZM347 56H348V53H347H346V56H347ZM358 105V106H380V105V104H358V105ZM380 105H381V65H380H379V105H380ZM403 53H402V107H403H404V53H403ZM380 65V66H383V65V64H380V65ZM383 65H384V55H383H382V65H383ZM402 53V54H403V53V52H402V53ZM402 56H403V53H402H401V56H402ZM390 56V57H402V56V55H390V56ZM390 53H389V56H390H391V53H390ZM380 53V54H390V53V52H380V53ZM383 55V54H380V55V56H383V55ZM380 55H381V53H380H379V55H380ZM491 146H490V197H491H492V146H491ZM491 197V196H445.026V197V198H491V197ZM461 107V108H510V107V106H461V107ZM510 107H509V110H510H511V107H510ZM527 146V145H491V146V147H527V146ZM510 110V111H522V110V109H510V110ZM522 110H523V107H522H521V110H522ZM522 107V108H571V107V106H522V107ZM571 107H570V110H571H572V107H571ZM585 226V225H527V226V227H585V226ZM527 226H528V146H527H526V226H527ZM585 185H584V226H585H586V185H585ZM588 185V184H585V185V186H588V185ZM600 182V181H588V182V183H600V182ZM588 182H587V185H588H589V182H588ZM705 107V108H754V107V106H705V107ZM619 185V184H600V185V186H619V185ZM600 185H601V182H600H599V185H600ZM631 182V181H619V182V183H631V182ZM619 182H618V185H619H620V182H619ZM631 185H632V182H631H630V185H631ZM632 107H631V110H632H633V107H632ZM571 110V111H583V110V109H571V110ZM583 110H584V107H583H582V110H583ZM583 107V108H632V107V106H583V107ZM632 110V111H644V110V109H632V110ZM644 110H645V107H644H643V110H644ZM644 107V108H693V107V106H644V107ZM705 110H706V107H705H704V110H705ZM693 107H692V110H693H694V107H693ZM693 110V111H705V110V109H693V110ZM709 185V184H631V185V186H709V185ZM709 182H708V185H709H710V182H709ZM721 182V181H709V182V183H721V182ZM721 185H722V182H721H720V185H721ZM771 182H770V185H771H772V182H771ZM771 185V184H721V185V186H771V185ZM783 182V181H771V182V183H783V182ZM754 107H753V110H754H755V107H754ZM754 110V111H766V110V109H754V110ZM766 110H767V107H766H765V110H766ZM766 107V108H811V107V106H766V107ZM811 107H810V110H811H812V107H811ZM811 110V111H823V110V109H811V110ZM823 110H824V107H823H822V110H823ZM823 107V108H861V107V106H823V107ZM861 107H860V110H861H862V107H861ZM861 110V111H873V110V109H861V110ZM873 110H874V107H873H872V110H873ZM873 107V108H876V107V106H873V107ZM783 185H784V182H783H782V185H783ZM813 185V184H783V185V186H813V185ZM813 182H812V185H813H814V182H813ZM825 182V181H813V182V183H825V182ZM893 185V184H825V185V186H893V185ZM825 185H826V182H825H824V185H825ZM896 147V148H950V147V146H896V147ZM905 182V181H893V182V183H905V182ZM893 182H892V185H893H894V182H893ZM907 185V184H905V185V186H907V185ZM905 185H906V182H905H904V185H905ZM893 132V133H896V132V131H893V132ZM896 132H895V147H896H897V132H896ZM876 107V108H878V107V106H876V107ZM878 107H877V110H878H879V107H878ZM878 110V111H890V110V109H878V110ZM893 122H892V132H893H894V122H893ZM896 122V121H893V122V123H896V122ZM939 120V119H896V120V121H939V120ZM896 120H895V122H896H897V120H896ZM890 110H891V107H890H889V110H890ZM890 107V108H935V107V106H890V107ZM935 107H934V110H935H936V107H935ZM939 119H938V120H939H940V119H939ZM935 110V111H947V110V109H935V110ZM949 119V118H939V119V120H949V119ZM949 108H948V119H949H950V108H949ZM947 110H948V107H947H946V110H947ZM947 107V108H950V107V106H947V107ZM950 107H949V108H950H951V107H950ZM950 108V107H949V108V109H950V108ZM950 147H949V213H950H951V147H950ZM937 210H936V213H937H938V210H937ZM949 210V209H937V210V211H949V210ZM950 213V212H949V213V214H950V213ZM949 213H950V210H949H948V213H949ZM937 213V212H907V213V214H937V213ZM907 213H908V185H907H906V213H907Z" fill="#3F5E5E" mask="url(#path-80-inside-1_100_25)"/>
</g>
</g>
</svg>
