<svg width="931" height="266" viewBox="0 0 931 266" fill="none" xmlns="http://www.w3.org/2000/svg">
<g id="HPSB1">
<rect id="10101" x="393.5" y="140.5" width="36" height="50" fill="#1D4427" stroke="#68EC89"/>
<rect id="10102" x="472.5" y="140.5" width="36" height="50" fill="#1D4427" stroke="#68EC89"/>
<path id="22201" d="M533.5 187.5V189.5H546.5V187.5H564.5V262.5H509.5V187.5H533.5Z" fill="#1D4427" stroke="#68EC89"/>
<path id=" 11101" d="M471.5 140.5V191.5H508.5V262.5H493.5V255.5H430.5V262.5H393.5V191.5H430.5V140.5H471.5Z" fill="#182626" stroke="#3F5E5E"/>
<path id="HPSB1_2" d="M930.5 0.5V262.5H916.5V203.5H871.5V262.5H565.5V186.5H546.5V182.5H533.5V186.5H509.5V139.5H392.5V262.5H42.5V209.5H0.5V0.5H930.5Z" fill="#2F3332" stroke="#B1ADAD"/>
<rect id="2" x="872.5" y="204.5" width="43" height="58" fill="#772C15" stroke="#FF8D4F"/>
<rect id="1" x="0.5" y="210.5" width="41" height="52" fill="#772C15" stroke="#FF8D4F"/>
<path id="10102_2" d="M545.5 183.5V188.5H534.5V183.5H545.5Z" fill="#142B2C" stroke="#C6CFF8"/>
<rect id="10101_2" x="431.5" y="256.5" width="61" height="9" fill="#142B2C" stroke="#C6CFF8"/>
</g>
</svg>
