<svg width="966" height="273" viewBox="0 0 966 273" fill="none" xmlns="http://www.w3.org/2000/svg">
<g id="HPSB7">
<path id="Rectangle 187" d="M80.5 184.5V189.5H69.5V184.5H80.5Z" fill="#203003" stroke="#4A3E0F"/>
<path id="Rectangle 188" d="M113 184H125V190H113V184Z" fill="#D9D9D9"/>
<path id="Rectangle 202" d="M151.5 129.5V134.5H142.5V129.5H151.5Z" fill="#203003" stroke="#4A3E0F"/>
<path id="Rectangle 204" d="M194.5 129.5V134.5H185.5V129.5H194.5Z" fill="#203003" stroke="#4A3E0F"/>
<path id="Rectangle 297" d="M286.5 129.5V134.5H277.5V129.5H286.5Z" fill="#203003" stroke="#4A3E0F"/>
<path id="Rectangle 296" d="M254.5 129.5V134.5H245.5V129.5H254.5Z" fill="#203003" stroke="#4A3E0F"/>
<path id="Rectangle 298" d="M265.5 103.5V131.5H255.5V128.5H244.5V131.5H243.5V103.5H265.5Z" fill="#2F3332" stroke="#B1ADAD"/>
<path id="Rectangle 207" d="M215.5 228.5V237.5H210.5V228.5H215.5Z" fill="#203003" stroke="#4A3E0F"/>
<path id="Rectangle 208" d="M262.5 228.5V237.5H257.5V228.5H262.5Z" fill="#203003" stroke="#4A3E0F"/>
<path id="Rectangle 203" d="M121.5 129.5V134.5H112.5V129.5H121.5Z" fill="#203003" stroke="#4A3E0F"/>
<path id="Rectangle 205" d="M102.5 244.5V249.5H93.5V244.5H102.5Z" fill="#203003" stroke="#4A3E0F"/>
<path id="Rectangle 206" d="M109.5 229.5V238.5H104.5V229.5H109.5Z" fill="#203003" stroke="#4A3E0F"/>
<path id="Rectangle 201" d="M124.5 184.5V189.5H113.5V184.5H124.5Z" fill="#203003" stroke="#4A3E0F"/>
<path id="Rectangle 194" d="M194.5 184.5V189.5H176.5V184.5H194.5Z" fill="#203003" stroke="#4A3E0F"/>
<path id="Rectangle 196" d="M197.5 206.5V211.5H179.5V206.5H197.5Z" fill="#203003" stroke="#4A3E0F"/>
<path id="Rectangle 197" d="M336.5 188.5V206.5H331.5V188.5H336.5Z" fill="#203003" stroke="#4A3E0F"/>
<path id="Rectangle 680" d="M279.5 206.5V211.5H261.5V206.5H279.5Z" fill="#203003" stroke="#4A3E0F"/>
<path id="Rectangle 198" d="M373.5 204.5V209.5H355.5V204.5H373.5Z" fill="#203003" stroke="#4A3E0F"/>
<path id="Rectangle 195" d="M254.5 184.5V189.5H236.5V184.5H254.5Z" fill="#203003" stroke="#4A3E0F"/>
<path id="Rectangle 189" d="M14.5 205.5V210.5H3.5V205.5H14.5Z" fill="#203003" stroke="#4A3E0F"/>
<path id="Rectangle 190" d="M167.5 206.5V211.5H156.5V206.5H167.5Z" fill="#203003" stroke="#4A3E0F"/>
<path id="Rectangle 200" d="M167.5 244.5V249.5H156.5V244.5H167.5Z" fill="#203003" stroke="#4A3E0F"/>
<path id="Rectangle 191" d="M280.5 184.5V189.5H269.5V184.5H280.5Z" fill="#203003" stroke="#4A3E0F"/>
<path id="Rectangle 192" d="M311 184H323V190H311V184Z" fill="#D9D9D9"/>
<path id="Rectangle 211" d="M322.5 184.5V189.5H311.5V184.5H322.5Z" fill="#203003" stroke="#4A3E0F"/>
<path id="Rectangle 212" d="M346.5 51.5V56.5H335.5V51.5H346.5Z" fill="#203003" stroke="#4A3E0F"/>
<path id="Rectangle 214" d="M401.5 51.5V56.5H390.5V51.5H401.5Z" fill="#203003" stroke="#4A3E0F"/>
<path id="Rectangle 222" d="M522.5 104.5V109.5H511.5V104.5H522.5Z" fill="#203003" stroke="#4A3E0F"/>
<path id="Rectangle 223" d="M583.5 104.5V109.5H572.5V104.5H583.5Z" fill="#203003" stroke="#4A3E0F"/>
<path id="Rectangle 221" d="M461.5 104.5V109.5H450.5V104.5H461.5Z" fill="#203003" stroke="#4A3E0F"/>
<path id="Rectangle 209" d="M406.5 230.5V235.5H397.5V230.5H406.5Z" fill="#203003" stroke="#4A3E0F"/>
<path id="Rectangle 210" d="M394.5 170.5V179.5H389.5V170.5H394.5Z" fill="#203003" stroke="#4A3E0F"/>
<path id="Rectangle 213" d="M336.5 90.5V101.5H331.5V90.5H336.5Z" fill="#203003" stroke="#4A3E0F"/>
<path id="Rectangle 199" d="M329.5 241.5V246.5H320.5V241.5H329.5Z" fill="#203003" stroke="#4A3E0F"/>
<path id="Rectangle 253" d="M378.5 77.5V82.5H369.5V77.5H378.5Z" fill="#203003" stroke="#4A3E0F"/>
<rect id="Rectangle 193" x="392.5" y="188.5" width="5" height="18" fill="#203003" stroke="#4A3E0F"/>
<rect id="22207" x="526.5" y="226.5" width="57" height="46" fill="#1D4427" stroke="#68EC89"/>
<rect id="10737" x="491.5" y="146.5" width="35" height="50" fill="#1D4427" stroke="#68EC89"/>
<path id="Rectangle 229" d="M333.5 1.5V89.5H330.5V102.5H312.5V1.5H333.5Z" fill="#2F3332" stroke="#B1ADAD"/>
<path id="10720" d="M368.5 1.5V53.5H347.5V50.5H334.5V1.5H368.5Z" fill="#2F182D" stroke="#773B72"/>
<path id="10721 " d="M402.5 1.5V50.5H389.5V53.5H369.5V1.5H402.5Z" fill="#162433" stroke="#1B2550"/>
<path id="10702" d="M464.5 0.5V106.5H462.451V103.5H449.5V106.5H403.5V0.5H464.5Z" fill="#2F3332" stroke="#B1ADAD"/>
<path id="10703" d="M525.5 0.5V106.5H523.5V103.5H510.5V106.5H465.5V0.5H525.5Z" fill="#2F3332" stroke="#B1ADAD"/>
<path id="10704" d="M586.5 0.5V106.5H584.5V103.5H571.5V106.5H526.5V0.5H586.5Z" fill="#2F3332" stroke="#B1ADAD"/>
<path id="10705" d="M647.5 0.5V106.5H645.5V103.5H632.5V106.5H587.5V0.5H647.5Z" fill="#2F3332" stroke="#B1ADAD"/>
<path id="10706" d="M708.5 0.5V106.5H706.5V103.5H693.5V106.5H648.5V0.5H708.5Z" fill="#2F3332" stroke="#B1ADAD"/>
<path id="10707" d="M767.5 0.5V106.5H766.5V103.5H753.5V106.5H708.5V0.5H767.5Z" fill="#2F3332" stroke="#B1ADAD"/>
<rect id="Rectangle 251" x="937.5" y="210.5" width="11" height="5" fill="#203003" stroke="#4A3E0F"/>
<path id="14" d="M936.5 213.5V216.5H949.477V213.5H949.5V272.5H906.5V213.5H936.5Z" fill="#772C15" stroke="#FF8D4F"/>
<rect id="Rectangle 230" x="892.5" y="182.5" width="11" height="5" fill="#203003" stroke="#4A3E0F"/>
<rect id="Rectangle 231" x="708.5" y="182.5" width="11" height="5" fill="#203003" stroke="#4A3E0F"/>
<rect id="Rectangle 232" x="618.5" y="239.5" width="11" height="5" fill="#203003" stroke="#4A3E0F"/>
<rect id="Rectangle 233" x="723.5" y="255.5" width="5" height="11" fill="#203003" stroke="#4A3E0F"/>
<rect id="Rectangle 234" x="805.5" y="255.5" width="5" height="11" fill="#203003" stroke="#4A3E0F"/>
<rect id="Rectangle 235" x="770.5" y="182.5" width="11" height="5" fill="#203003" stroke="#4A3E0F"/>
<rect id="Rectangle 236" x="812.5" y="182.5" width="11" height="5" fill="#203003" stroke="#4A3E0F"/>
<path id="Rectangle 237" d="M598.5 182.5V187.5H587.5V182.5H598.5Z" fill="#203003" stroke="#4A3E0F"/>
<path id="Rectangle 238" d="M629.5 182.5V187.5H618.5V182.5H629.5Z" fill="#203003" stroke="#4A3E0F"/>
<path id="10710" d="M811.5 185.5V188.5H824.5V185.5H873.5V272.5H808.5V267.5H811.5V254.5H808.5V252.5H768.5V203.5H809.697V185.5H811.5Z" fill="#2F3332" stroke="#B1ADAD"/>
<path id="Rectangle 240" d="M769.5 185.5V188.5H782.5V185.5H809.5V202.5H768.5V185.5H769.5Z" fill="#2F3332" stroke="#B1ADAD"/>
<rect id="Rectangle 241" x="725.5" y="185.5" width="42" height="17" fill="#2F3332" stroke="#B1ADAD"/>
<path id="Rectangle 242" d="M807.5 253.5V254.5H804.5V267.5H807.5V272.5H768.5V253.5H807.5Z" fill="#2F3332" stroke="#B1ADAD"/>
<path id="Rectangle 243" d="M767.5 253.5V272.5H725.5V267.5H729.5V254.5H725.5V253.5H767.5Z" fill="#2F3332" stroke="#B1ADAD"/>
<path id="10715" d="M891.5 185.5V188.5H904.5V185.5H905.5V272.5H875V185.5H891.5Z" fill="#2F3332" stroke="#B1ADAD"/>
<path id="10717" d="M586.5 185.5V188.5H599.5V185.5H614.5V272.5H584.5V185.5H586.5Z" fill="#2F3332" stroke="#B1ADAD"/>
<path id="Rectangle 246" d="M617.5 242.5V245.5H630.5V242.5H637.5V272.5H615.5V242.5H617.5Z" fill="#2F3332" stroke="#B1ADAD"/>
<path id="10716" d="M617.5 185.5V188.5H630.5V185.5H645.5V272.5H638.5V241.5H630.5V238.5H617.5V241.5H615.5V185.5H617.5Z" fill="#2F3332" stroke="#B1ADAD"/>
<path id="10711" d="M707.5 185.5V188.5H720.5V185.5H724.5V203.5H767.5V252.5H724.5V254.5H722.5V267.5H724.5V272.5H646.5V185.5H707.5Z" fill="#2F3332" stroke="#B1ADAD"/>
<g id="HPSB7_2">
<mask id="path-69-inside-1_100_24" fill="white">
<path d="M382 207H392V199V193.5V188.5V187V180H389V170H392V146H445.026V197H491V146H527V197H526V226H584V185H587V182H599V185H618V182H630V185H708V182H720V185H770V182H782V185H812V182H824V185H892V182H904V185H906V213H937V210H949V213H950V146H896V132H893V122H896V120H939V119H949V108H950V107H947V110H935V107H890V110H878V107H876V146H874V147H862V146H824V148H812V146H768V107H766V110H754V107H706V110H694V107H645V110H633V107H584V110H572V107H523V110H511V107H462V110H450V107H403V53H402V56H390V53H380V56H383V66H380V105H358V53H347V56H335V53H334V90H337V102H334V188H337V207H355V204H374V207H378H382Z"/>
</mask>
<path d="M382 207H392V199V193.5V188.5V187V180H389V170H392V146H445.026V197H491V146H527V197H526V226H584V185H587V182H599V185H618V182H630V185H708V182H720V185H770V182H782V185H812V182H824V185H892V182H904V185H906V213H937V210H949V213H950V146H896V132H893V122H896V120H939V119H949V108H950V107H947V110H935V107H890V110H878V107H876V146H874V147H862V146H824V148H812V146H768V107H766V110H754V107H706V110H694V107H645V110H633V107H584V110H572V107H523V110H511V107H462V110H450V107H403V53H402V56H390V53H380V56H383V66H380V105H358V53H347V56H335V53H334V90H337V102H334V188H337V207H355V204H374V207H378H382Z" fill="#182626"/>
<path d="M882 146V145.5H876V146V146.5H882V146ZM392 207V208H393V207H392ZM334 188H333V189H334V188ZM334 102V101H333V102H334ZM392 180H393V179H392V180ZM389 180H388V181H389V180ZM389 170V169H388V170H389ZM392 146V145H391V146H392ZM392 170V171H393V170H392ZM445.026 146H446.026V145H445.026V146ZM445.026 197H444.026V198H445.026V197ZM450 110H449V111H450V110ZM462 110V111H463V110H462ZM462 107V106H461V107H462ZM403 107H402V108H403V107ZM450 107H451V106H450V107ZM337 102V103H338V102H337ZM337 90H338V89H337V90ZM358 53H359V52H358V53ZM358 105H357V106H358V105ZM334 90H333V91H334V90ZM334 53V52H333V53H334ZM347 53V52H346V53H347ZM335 53H336V52H335V53ZM335 56H334V57H335V56ZM347 56V57H348V56H347ZM380 105V106H381V105H380ZM380 66V65H379V66H380ZM403 53H404V52H403V53ZM383 66V67H384V66H383ZM383 56H384V55H383V56ZM402 53V52H401V53H402ZM402 56V57H403V56H402ZM390 56H389V57H390V56ZM390 53H391V52H390V53ZM380 53V52H379V53H380ZM380 56H379V57H380V56ZM491 146V145H490V146H491ZM491 197V198H492V197H491ZM511 107H512V106H511V107ZM511 110H510V111H511V110ZM527 146H528V145H527V146ZM523 110V111H524V110H523ZM523 107V106H522V107H523ZM572 107H573V106H572V107ZM572 110H571V111H572V110ZM584 226V227H585V226H584ZM526 226H525V227H526V226ZM584 185V184H583V185H584ZM587 185V186H588V185H587ZM599 182H600V181H599V182ZM587 182V181H586V182H587ZM706 107V106H705V107H706ZM754 107H755V106H754V107ZM618 185V186H619V185H618ZM599 185H598V186H599V185ZM630 182H631V181H630V182ZM618 182V181H617V182H618ZM630 185H629V186H630V185ZM633 107H634V106H633V107ZM633 110H632V111H633V110ZM584 110V111H585V110H584ZM584 107V106H583V107H584ZM645 110V111H646V110H645ZM645 107V106H644V107H645ZM694 107H695V106H694V107ZM706 110V111H707V110H706ZM694 110H693V111H694V110ZM708 185V186H709V185H708ZM708 182V181H707V182H708ZM720 182H721V181H720V182ZM720 185H719V186H720V185ZM770 182V181H769V182H770ZM770 185V186H771V185H770ZM782 182H783V181H782V182ZM754 110H753V111H754V110ZM766 110V111H767V110H766ZM766 107V106H765V107H766ZM768 107H769V106H768V107ZM768 146H767V147H768V146ZM812 146H813V145H812V146ZM812 148H811V149H812V148ZM824 146V145H823V146H824ZM862 146H863V145H862V146ZM862 147H861V148H862V147ZM876 146V147H877V146H876ZM874 147V148H875V147H874ZM782 185H781V186H782V185ZM812 185V186H813V185H812ZM812 182V181H811V182H812ZM824 182H825V181H824V182ZM892 185V186H893V185H892ZM824 185H823V186H824V185ZM896 146H895V147H896V146ZM950 146H951V145H950V146ZM904 182H905V181H904V182ZM892 182V181H891V182H892ZM906 185H907V184H906V185ZM904 185H903V186H904V185ZM893 132H892V133H893V132ZM896 132H897V131H896V132ZM878 107H879V106H878V107ZM878 110H877V111H878V110ZM890 110V111H891V110H890ZM893 122V121H892V122H893ZM896 122V123H897V122H896ZM939 120V121H940V120H939ZM896 120V119H895V120H896ZM890 107V106H889V107H890ZM935 107H936V106H935V107ZM935 110H934V111H935V110ZM939 119V118H938V119H939ZM947 110V111H948V110H947ZM949 119V120H950V119H949ZM949 108V107H948V108H949ZM947 107V106H946V107H947ZM950 107H951V106H950V107ZM950 108V109H951V108H950ZM950 213V214H951V213H950ZM937 210V209H936V210H937ZM937 213V214H938V213H937ZM949 210H950V209H949V210ZM949 213H948V214H949V213ZM906 213H905V214H906V213ZM355 204V203H354V204H355ZM355 207V208H356V207H355ZM374 204H375V203H374V204ZM374 207H373V208H374V207ZM527 197V198H528V197H527ZM526 197V196H525V197H526ZM824 148V149H825V148H824ZM874 146V145H873V146H874ZM876 107V106H875V107H876ZM337 188H338V187H337V188ZM337 207H336V208H337V207ZM392 207V206H382V207V208H392V207ZM334 188H335V102H334H333V188H334ZM392 188.5H391V193.5H392H393V188.5H392ZM392 193.5H391V199H392H393V193.5H392ZM392 199H391V207H392H393V199H392ZM392 180H391V187H392H393V180H392ZM392 187H391V188.5H392H393V187H392ZM389 180V181H392V180V179H389V180ZM389 170H388V180H389H390V170H389ZM392 146H391V170H392H393V146H392ZM392 170V169H389V170V171H392V170ZM445.026 146V145H392V146V147H445.026V146ZM445.026 197H446.026V146H445.026H444.026V197H445.026ZM450 110V111H462V110V109H450V110ZM462 110H463V107H462H461V110H462ZM403 107V108H450V107V106H403V107ZM450 107H449V110H450H451V107H450ZM334 102V103H337V102V101H334V102ZM337 102H338V90H337H336V102H337ZM358 53H357V105H358H359V53H358ZM337 90V89H334V90V91H337V90ZM334 90H335V53H334H333V90H334ZM347 53V54H358V53V52H347V53ZM334 53V54H335V53V52H334V53ZM335 53H334V56H335H336V53H335ZM335 56V57H347V56V55H335V56ZM347 56H348V53H347H346V56H347ZM358 105V106H380V105V104H358V105ZM380 105H381V66H380H379V105H380ZM403 53H402V107H403H404V53H403ZM380 66V67H383V66V65H380V66ZM383 66H384V56H383H382V66H383ZM402 53V54H403V53V52H402V53ZM402 56H403V53H402H401V56H402ZM390 56V57H402V56V55H390V56ZM390 53H389V56H390H391V53H390ZM380 53V54H390V53V52H380V53ZM383 56V55H380V56V57H383V56ZM380 56H381V53H380H379V56H380ZM491 146H490V197H491H492V146H491ZM491 197V196H445.026V197V198H491V197ZM462 107V108H511V107V106H462V107ZM511 107H510V110H511H512V107H511ZM527 146V145H491V146V147H527V146ZM511 110V111H523V110V109H511V110ZM523 110H524V107H523H522V110H523ZM523 107V108H572V107V106H523V107ZM572 107H571V110H572H573V107H572ZM584 226V225H526V226V227H584V226ZM584 185H583V226H584H585V185H584ZM587 185V184H584V185V186H587V185ZM599 182V181H587V182V183H599V182ZM587 182H586V185H587H588V182H587ZM706 107V108H754V107V106H706V107ZM618 185V184H599V185V186H618V185ZM599 185H600V182H599H598V185H599ZM630 182V181H618V182V183H630V182ZM618 182H617V185H618H619V182H618ZM630 185H631V182H630H629V185H630ZM633 107H632V110H633H634V107H633ZM572 110V111H584V110V109H572V110ZM584 110H585V107H584H583V110H584ZM584 107V108H633V107V106H584V107ZM633 110V111H645V110V109H633V110ZM645 110H646V107H645H644V110H645ZM645 107V108H694V107V106H645V107ZM706 110H707V107H706H705V110H706ZM694 107H693V110H694H695V107H694ZM694 110V111H706V110V109H694V110ZM708 185V184H630V185V186H708V185ZM708 182H707V185H708H709V182H708ZM720 182V181H708V182V183H720V182ZM720 185H721V182H720H719V185H720ZM770 182H769V185H770H771V182H770ZM770 185V184H720V185V186H770V185ZM782 182V181H770V182V183H782V182ZM754 107H753V110H754H755V107H754ZM754 110V111H766V110V109H754V110ZM766 110H767V107H766H765V110H766ZM766 107V108H768V107V106H766V107ZM768 107H767V146H768H769V107H768ZM768 146V147H812V146V145H768V146ZM812 146H811V148H812H813V146H812ZM824 146V147H862V146V145H824V146ZM862 146H861V147H862H863V146H862ZM862 147V148H874V147V146H862V147ZM782 185H783V182H782H781V185H782ZM812 185V184H782V185V186H812V185ZM812 182H811V185H812H813V182H812ZM824 182V181H812V182V183H824V182ZM892 185V184H824V185V186H892V185ZM824 185H825V182H824H823V185H824ZM896 146V147H950V146V145H896V146ZM904 182V181H892V182V183H904V182ZM892 182H891V185H892H893V182H892ZM906 185V184H904V185V186H906V185ZM904 185H905V182H904H903V185H904ZM893 132V133H896V132V131H893V132ZM896 132H895V146H896H897V132H896ZM878 107H877V110H878H879V107H878ZM878 110V111H890V110V109H878V110ZM893 122H892V132H893H894V122H893ZM896 122V121H893V122V123H896V122ZM939 120V119H896V120V121H939V120ZM896 120H895V122H896H897V120H896ZM890 110H891V107H890H889V110H890ZM890 107V108H935V107V106H890V107ZM935 107H934V110H935H936V107H935ZM939 119H938V120H939H940V119H939ZM935 110V111H947V110V109H935V110ZM949 119V118H939V119V120H949V119ZM949 108H948V119H949H950V108H949ZM947 110H948V107H947H946V110H947ZM947 107V108H950V107V106H947V107ZM950 107H949V108H950H951V107H950ZM950 108V107H949V108V109H950V108ZM950 146H949V213H950H951V146H950ZM937 210H936V213H937H938V210H937ZM949 210V209H937V210V211H949V210ZM950 213V212H949V213V214H950V213ZM949 213H950V210H949H948V213H949ZM937 213V212H906V213V214H937V213ZM906 213H907V185H906H905V213H906ZM355 204H354V207H355H356V204H355ZM374 204V203H355V204V205H374V204ZM374 207H375V204H374H373V207H374ZM382 207V206H378V207V208H382V207ZM378 207V206H374V207V208H378V207ZM527 197H528V146H527H526V197H527ZM526 226H527V197H526H525V226H526ZM526 197V198H527V197V196H526V197ZM812 148V149H824V148V147H812V148ZM824 148H825V146H824H823V148H824ZM874 147H875V146H874H873V147H874ZM874 146V147H876V146V145H874V146ZM876 146H877V107H876H875V146H876ZM876 107V108H878V107V106H876V107ZM337 188V187H334V188V189H337V188ZM355 207V206H337V207V208H355V207ZM337 207H338V188H337H336V207H337Z" fill="#3F5E5E" mask="url(#path-69-inside-1_100_24)"/>
</g>
<path id="Rectangle 226" d="M644.5 104.5V109.5H633.5V104.5H644.5Z" fill="#203003" stroke="#4A3E0F"/>
<path id="Rectangle 227" d="M705.5 104.5V109.5H694.5V104.5H705.5Z" fill="#203003" stroke="#4A3E0F"/>
<path id="Rectangle 228" d="M765.5 104.5V109.5H754.5V104.5H765.5Z" fill="#203003" stroke="#4A3E0F"/>
<path id="Rectangle 267" d="M823.5 142.5V147.5H812.5V142.5H823.5Z" fill="#203003" stroke="#4A3E0F"/>
<path id="Rectangle 268" d="M873.5 141.5V146.5H862.5V141.5H873.5Z" fill="#203003" stroke="#4A3E0F"/>
<path id="10719" d="M379.5 54.5V55.5H376.5V66.5H379.5V76.5H368.5V80.5H358.5V54.5H379.5Z" fill="#2F3332" stroke="#B1ADAD"/>
<path id="Rectangle 250" d="M368.5 81.5V83.5H379.5V105.5H358.5V81.5H368.5Z" fill="#2F3332" stroke="#B1ADAD"/>
<path id="Rectangle 254" d="M382.5 56.5V65.5H377.5V56.5H382.5Z" fill="#203003" stroke="#4A3E0F"/>
<rect id="Rectangle 255" x="878.5" y="104.5" width="11" height="5" fill="#203003" stroke="#4A3E0F"/>
<rect id="Rectangle 256" x="935.5" y="104.5" width="11" height="5" fill="#203003" stroke="#4A3E0F"/>
<rect id="Rectangle 257" x="949.5" y="108.5" width="5" height="11" fill="#203003" stroke="#4A3E0F"/>
<rect id="Rectangle 258" x="893.5" y="122.5" width="5" height="9" fill="#203003" stroke="#4A3E0F"/>
<rect id="Rectangle 259" x="939.5" y="119.5" width="9" height="5" fill="#203003" stroke="#4A3E0F"/>
<path id="10711_2" d="M912.5 0.5V106.5H890.5V103.5H877.5V106.5H876.5V0.5H912.5Z" fill="#2F182D" stroke="#6B386E"/>
<path id="10712" d="M949.5 0.5V106.5H947.5V103.5H934.5V106.5H913.5V0.5H949.5Z" fill="#162433" stroke="#141A30"/>
<path id="100107" d="M922.5 120.5V145.5H896.5V132.458L898.991 132.5L899.5 132.509V121.5H896.5V120.5H922.5Z" fill="#2F3332" stroke="#B1ADAD"/>
<path id="10713" d="M938.5 120.5V125.314H949.5V145.5H923.5V120.5H938.5Z" fill="#2F3332" stroke="#B1ADAD"/>
<path id="Rectangle 264" d="M965.5 0.5V142.5H950.5V120.5H955.5V107.5H950.5V0.5H965.5Z" fill="#2F3332" stroke="#B1ADAD"/>
<path id="10708" d="M825.5 0.5V145.5H824.5V141.5H811.5V145.5H768.5V0.5H825.5Z" fill="#2F3332" stroke="#B1ADAD"/>
<path id="10709" d="M875.5 0.5V145.5H874.5V140.5H861.5V145.5H826.5V0.5H875.5Z" fill="#2F3332" stroke="#B1ADAD"/>
<rect id="10736" x="409.5" y="146.5" width="35" height="50" fill="#1D4427" stroke="#68EC89"/>
<path id="10718" d="M408.5 146.5V186.5H392.5V180.5H395.5V169.5H392.5V146.5H408.5Z" fill="#2F3332" stroke="#B1ADAD"/>
<path id="10701" d="M525.5 197.5V272.5H409.5V197.5H525.5Z" fill="#2F3332" stroke="#B1ADAD"/>
<path id="Rectangle 277" d="M333.5 244.5V272.5H281V244.993L319.5 244.506V247.5H330.5V244.5H333.5Z" fill="#2F3332" stroke="#B1ADAD"/>
<path id="10724" d="M333.5 207.5V243.5H330.5V240.5H319.5V243.506L281 243.993V209.5H329.5V207.5H333.5Z" fill="#2F3332" stroke="#B1ADAD"/>
<path id="Rectangle 279" d="M259.5 209.5V227.5H256.5V238.5H259.5V239.5H237.5V209.5H259.5Z" fill="#2F3332" stroke="#B1ADAD"/>
<path id="Rectangle 280" d="M236.5 209.5V239.5H213.5V238.5H216.5V227.5H213.5V209.5H236.5Z" fill="#2F3332" stroke="#B1ADAD"/>
<path id="10722" d="M354.5 207.5V210.5H374.5V207.5H394.5V272.5H334.5V207.5H354.5Z" fill="#2F3332" stroke="#B1ADAD"/>
<path id="10701_2" d="M408.5 187.5V232.5H407.5V229.5H396.5V232.5H395.5V207.5H398.5V187.5H408.5Z" fill="#2F3332" stroke="#B1ADAD"/>
<path id="Rectangle 281" d="M396.5 233.5V236.5H407.5V233.5H408.5V272.5H395.5V233.5H396.5Z" fill="#2F3332" stroke="#B1ADAD"/>
<path id="10725" d="M260.5 212.5H280V272.5H237.5V240.5H260.5V238.5H263.5V227.5H260.5V212.5Z" fill="#2F3332" stroke="#B1ADAD"/>
<path id="10726" d="M178.5 209.5V212.5H198.5V209.5H212.5V227.5H209.5V238.5H212.5V240.5H236.5V272.5H170.5V209.5H178.5Z" fill="#2F3332" stroke="#B1ADAD"/>
<path id="10727" d="M155.5 209.5V212.5H168.5V209.5H169.5V246.5H168.5V243.5H155.5V246.5H129.5V209.5H155.5Z" fill="#2F3332" stroke="#B1ADAD"/>
<path id="Rectangle 286" d="M155.5 247.5V250.5H168.5V247.5H169.5V272.5H129.5V247.5H155.5Z" fill="#2F3332" stroke="#B1ADAD"/>
<path id="10728" d="M128.5 228.5V246.5H107.5V239.5H110.5V228.5H128.5Z" fill="#2F3332" stroke="#B1ADAD"/>
<path id="10729" d="M92.5 247.5V250.5H103.5V247.5H128.5V272.5H70.5V247.5H92.5Z" fill="#2F3332" stroke="#B1ADAD"/>
<path id="Rectangle 289" d="M2.5 208.5V211.5H15.5V208.5H41.5V272.5H0.5V208.5H2.5Z" fill="#2F3332" stroke="#B1ADAD"/>
<path id="13" d="M2.5 208.5V211.5H15.5V208.5H41.5V272.5H0.5V208.5H2.5Z" fill="#772C15" stroke="#F5915B"/>
<rect id="10730" x="42.5" y="208.5" width="27" height="64" fill="#2F3332" stroke="#B1ADAD"/>
<path id="10731" d="M65.5 103.5V186.5H0.5V103.5H65.5Z" fill="#2F3332" stroke="#B1ADAD"/>
<path id="10732" d="M109.5 103.5V132.5H111.5V135.5H122.5V132.5H131.5V186.5H125.5V183.5H112.5V186.5H81.5V183.5H68.5V186.5H66.5V103.5H109.5Z" fill="#2F3332" stroke="#B1ADAD"/>
<path id="10734" d="M242.5 103.5V132.5H244.5V135.5H255.5V132.5H265.5V186.5H255.5V183.5H235.5V186.5H197.5V103.5H242.5Z" fill="#2F3332" stroke="#B1ADAD"/>
<path id="Rectangle 300" d="M131.5 103.5V131.5H122.5V128.5H111.5V131.5H110.5V103.5H131.5Z" fill="#2F3332" stroke="#B1ADAD"/>
<path id="10733" d="M141.5 132.5V135.5H152.5V132.5H184.5V135.5H195.5V132.5H196.5V186.5H195.5V183.5H175.5V186.5H132.5V132.5H141.5Z" fill="#2F3332" stroke="#B1ADAD"/>
<path id="Rectangle 302" d="M153.5 103.5V131.5H152.5V128.5H141.5V131.5H132.5V103.5H153.5Z" fill="#2F3332" stroke="#B1ADAD"/>
<path id="Rectangle 303" d="M196.5 103.5V131.5H195.5V128.5H184.5V131.5H154.5V103.5H196.5Z" fill="#2F3332" stroke="#B1ADAD"/>
<path id="107035" d="M333.5 103.5V186.5H323.5V183.5H310.5V186.5H281.5V183.5H268.5V186.5H266.5V132.5H276.5V135.5H287.5V132.5H289.5V103.5H333.5Z" fill="#2F3332" stroke="#B1ADAD"/>
<path id="Rectangle 310" d="M288.5 103.5V131.5H287.5V128.5H276.5V131.5H266.5V103.5H288.5Z" fill="#2F3332" stroke="#B1ADAD"/>
<path id="10723" d="M68.5 187.5V190.5H81.5V187.5H112.5V190.5H125.5V187.5H175.5V190.5H195.5V187.5H235.5V190.5H255.5V187.5H268.5V190.5H281.5V187.5H310.5V190.5H323.5V187.5H330.5V206.5H328.5V208.5H281V207.5H280.5V205.5H260.5V208.5H198.5V205.5H178.5V208.5H168.5V205.5H155.5V208.5H114V209.5H128.5V227.5H105.5V228.5H103.5V239.5H106.5V246.5H103.5V243.5H92.5V246.5H70.5V207.5H15.5V204.5H2.5V207.5H0.5V187.5H68.5Z" fill="#182626" stroke="#3F5E5E"/>
</g>
</svg>
