<svg width="964" height="271" viewBox="0 0 964 271" fill="none" xmlns="http://www.w3.org/2000/svg">
<g id="HPSB5">
<rect id="Rectangle 682" x="3.5" y="203.5" width="11" height="5" fill="#203003" stroke="#4A3E0F"/>
<rect id="Rectangle 686" x="331.5" y="88.5" width="5" height="11" fill="#203003" stroke="#4A3E0F"/>
<rect id="Rectangle 687" x="335.5" y="48.5" width="11" height="5" fill="#203003" stroke="#4A3E0F"/>
<rect id="Rectangle 688" x="390.5" y="48.5" width="11" height="5" fill="#203003" stroke="#4A3E0F"/>
<rect id="Rectangle 689" x="424.5" y="102.5" width="17" height="5" fill="#203003" stroke="#4A3E0F"/>
<rect id="Rectangle 690" x="468.5" y="51.5" width="8" height="3" fill="#203003" stroke="#4A3E0F"/>
<rect id="Rectangle 743" x="495.5" y="43.5" width="3" height="8" fill="#203003" stroke="#4A3E0F"/>
<rect id="Rectangle 744" x="495.5" y="22.5" width="3" height="8" fill="#203003" stroke="#4A3E0F"/>
<rect id="Rectangle 742" x="481.5" y="51.5" width="8" height="3" fill="#203003" stroke="#4A3E0F"/>
<rect id="Rectangle 691" x="571.5" y="102.5" width="11" height="5" fill="#203003" stroke="#4A3E0F"/>
<rect id="Rectangle 692" x="632.5" y="102.5" width="11" height="5" fill="#203003" stroke="#4A3E0F"/>
<rect id="Rectangle 694" x="693.5" y="102.5" width="11" height="5" fill="#203003" stroke="#4A3E0F"/>
<rect id="Rectangle 695" x="754.5" y="102.5" width="11" height="5" fill="#203003" stroke="#4A3E0F"/>
<rect id="Rectangle 696" x="853.5" y="102.5" width="18" height="5" fill="#203003" stroke="#4A3E0F"/>
<rect id="Rectangle 697" x="878.5" y="102.5" width="11" height="5" fill="#203003" stroke="#4A3E0F"/>
<rect id="Rectangle 745" x="861.5" y="37.5" width="11" height="5" fill="#203003" stroke="#4A3E0F"/>
<rect id="Rectangle 698" x="935.5" y="102.5" width="11" height="5" fill="#203003" stroke="#4A3E0F"/>
<rect id="Rectangle 699" x="949.5" y="106.5" width="5" height="11" fill="#203003" stroke="#4A3E0F"/>
<rect id="Rectangle 700" x="937.5" y="208.5" width="11" height="5" fill="#203003" stroke="#4A3E0F"/>
<path id="Rectangle 701" d="M888.5 180.5V185.5H877.5V180.5H888.5Z" fill="#203003" stroke="#4A3E0F"/>
<rect id="Rectangle 702" x="693.5" y="180.5" width="11" height="5" fill="#203003" stroke="#4A3E0F"/>
<rect id="Rectangle 706" x="754.5" y="180.5" width="11" height="5" fill="#203003" stroke="#4A3E0F"/>
<rect id="Rectangle 707" x="811.5" y="180.5" width="11" height="5" fill="#203003" stroke="#4A3E0F"/>
<rect id="Rectangle 741" x="861.5" y="180.5" width="11" height="5" fill="#203003" stroke="#4A3E0F"/>
<path id="Rectangle 710" d="M643.5 180.5V185.5H632.5V180.5H643.5Z" fill="#203003" stroke="#4A3E0F"/>
<rect id="Rectangle 712" x="158.5" y="204.5" width="17" height="5" fill="#203003" stroke="#4A3E0F"/>
<rect id="Rectangle 714" x="389.5" y="168.5" width="5" height="9" fill="#203003" stroke="#4A3E0F"/>
<rect id="Rectangle 730" x="362.5" y="204.5" width="9" height="5" fill="#203003" stroke="#4A3E0F"/>
<rect id="Rectangle 715" x="893.5" y="120.5" width="5" height="9" fill="#203003" stroke="#4A3E0F"/>
<rect id="Rectangle 716" x="939.5" y="117.5" width="9" height="5" fill="#203003" stroke="#4A3E0F"/>
<rect id="Rectangle 717" x="377.5" y="53.5" width="5" height="9" fill="#203003" stroke="#4A3E0F"/>
<path id="Rectangle 718" d="M378.5 74.5V79.5H369.5V74.5H378.5Z" fill="#203003" stroke="#4A3E0F"/>
<path id="10502" d="M407.606 185.5V195.5H526.5V270.5H394.5V185.5H407.606Z" fill="#2F3332" stroke="#B1ADAD"/>
<rect id="22205" x="527.5" y="224.5" width="57" height="46" fill="#1D4427" stroke="#68EC89"/>
<rect id="10517" x="409.5" y="144.5" width="35" height="50" fill="#1D4427" stroke="#68EC89"/>
<rect id="10516" x="491.5" y="144.5" width="35" height="50" fill="#1D4427" stroke="#68EC89"/>
<path id="9" d="M2.5 206.5V209.454H15.5V206.5H41.5V270.5H0.5V206.5H2.5Z" fill="#772C15" stroke="#FF8D4F"/>
<path id="10502_2" d="M157.5 207.5V210.5H176.5V207.5H361.5V210.5H372.5V207.5H393.5V270.5H42.5V207.5H157.5Z" fill="#2F3332" stroke="#B1ADAD"/>
<path id="Rectangle 720" d="M333.5 0.5V87.5H330.5V100.5H333.5V102.5H312.5V0.5H333.5Z" fill="#2F3332" stroke="#B1ADAD"/>
<path id="10519" d="M368.5 0.5V50.5H347.5V47.5H334.5V0.5H368.5Z" fill="#2F182D" stroke="#773B72"/>
<path id="10520" d="M402.5 0.5V47.5H389.5V50.5H369.5V0.5H402.5Z" fill="#162433" stroke="#1B2550"/>
<path id="10521" d="M379.5 51.5V52.5H376.5V63.5H379.5V73.5H368.5V77.5H358.5V51.5H379.5Z" fill="#2F3332" stroke="#B1ADAD"/>
<path id="Rectangle 721" d="M368.5 78.5V80.5H379.5V102.5H358.5V78.5H368.5Z" fill="#2F3332" stroke="#B1ADAD"/>
<path id="10520" d="M495.5 0.5V21.5H494.5V31.5H495.5V42.5H494.5V52.5H490.5V50.5H480.5V52.5H477.5V50.5H467.5V52.5H462.5V104.5H442.5V101.5H423.5V104.5H403.5V0.5H495.5Z" fill="#2F3332" stroke="#B1ADAD"/>
<path id="10521" d="M467.5 53.5V55.5H477.5V53.5H478.5V104.5H463.5V53.5H467.5Z" fill="#2F3332" stroke="#B1ADAD"/>
<path id="10540" d="M523.5 33.5V52.5H499.5V42.5H496.5V33.5H523.5Z" fill="#2F3332" stroke="#B1ADAD"/>
<path id="10541" d="M523.5 0.5V32.5H496.5V31.5H499.5V21.5H496.5V0.5H523.5Z" fill="#2F3332" stroke="#B1ADAD"/>
<path id="10539" d="M480.5 53.5V55.5H490.5V53.5H523.5V104.5H479.5V53.5H480.5Z" fill="#2F3332" stroke="#B1ADAD"/>
<path id="10504" d="M585.5 0.5V104.5H583.5V101.5H570.5V104.5H524.5V0.5H585.5Z" fill="#2F3332" stroke="#B1ADAD"/>
<path id="10505" d="M646.5 0.5V104.5H644.5V101.5H631.5V104.5H586.5V0.5H646.5Z" fill="#2F3332" stroke="#B1ADAD"/>
<path id="10506" d="M707.5 0.5V104.5H705.5V101.5H692.5V104.5H647.5V0.5H707.5Z" fill="#2F3332" stroke="#B1ADAD"/>
<path id="10507" d="M849.5 0.5V40.5H860.5V43.5H873.5V40.5H875.5V104.5H872.5V101.556H852.5V104.5H766.5V101.556H753.5V104.5H708.5V0.5H849.5Z" fill="#2F3332" stroke="#B1ADAD"/>
<path id="10514" d="M912.5 0.5V104.5H890.5V101.5H877.5V104.5H876.5V0.5H912.5Z" fill="#2F182D" stroke="#6B386E"/>
<path id="10513" d="M949.5 0.5V104.5H947.5V101.5H934.5V104.5H913.5V0.5H949.5Z" fill="#162433" stroke="#141A30"/>
<path id="100105" d="M922.5 118.5V144.5H896.5V130.5H899.5V119.5H896.5V118.5H922.5Z" fill="#2F3332" stroke="#B1ADAD"/>
<path id="10512" d="M906.5 183.5V270.5H876.5V186.5H889.5V183.5H906.5Z" fill="#2F3332" stroke="#B1ADAD"/>
<path id="10" d="M936.5 211.5V214.5H949.5V270.5H907.5V211.5H936.5Z" fill="#772C15" stroke="#FF8D4F"/>
<path id="10522" d="M938.5 118.5V123.5H949.5V144.5H923.5V118.5H938.5Z" fill="#2F3332" stroke="#B1ADAD"/>
<path id="Rectangle 727" d="M963.5 0.5V140.5H950.5V118.5H955.5V105.5H950.5V0.5H963.5Z" fill="#2F3332" stroke="#B1ADAD"/>
<path id="10518" d="M408.5 144.5V184.5H392.5V178.5H395.5V167.5H392.5V144.5H408.5Z" fill="#2F3332" stroke="#B1ADAD"/>
<path id="10511" d="M631.5 183.5V186.5H644.5V183.5H645.5V270.5H585.5V183.5H631.5Z" fill="#2F3332" stroke="#B1ADAD"/>
<path id="105011" d="M692.5 183.5V186.5H705.5V183.5H706.5V270.5H646.5V183.5H692.5Z" fill="#2F3332" stroke="#B1ADAD"/>
<path id="10510" d="M753.5 183.5V186.5H766.5V183.5H767.5V270.5H707.5V183.5H753.5Z" fill="#2F3332" stroke="#B1ADAD"/>
<path id="10509" d="M810.5 183.5V186.5H823.653L823.631 185.979L823.522 183.5H824.5V270.5H768.5V183.5H810.5Z" fill="#2F3332" stroke="#B1ADAD"/>
<path id="10508" d="M860.5 183.5V186.5H873.5V183.5H875.5V270.5H825.5V183.5H860.5Z" fill="#2F3332" stroke="#B1ADAD"/>
<g id="HPSB5_2">
<mask id="path-66-inside-1_100_18" fill="white">
<path d="M0 186H47.0001H57.0001H111H157V189H176V186H249H261H318H330H333V100H337V88H334V51H335V54H347V51H358V103H380V63H383V53H380V51H390V54H402V51H403V105H424V108H442V105H510H522H571V108H583V105H632V108H644V105H693V108H705V105H754V108H766V105H811H853V108H872V105H876H878V108H890V105H935V108H947V105H950V106H949V117H939V118H896V120H893V130H896V145H950V211H949V208H937V211H907V183H889V180H877V183H873V180H861V183H823V180H811V183H766V180H754V183H705V180H693V183H644V180H632V183H585V224H527V144H491V195H445.026V144H392V168H389V178H392V185H394V207H372V204H362V207H176V204H158V207H42.0001V206H15.0001V203H3.00007V206H7.10487e-05L0 186Z"/>
</mask>
<path d="M0 186H47.0001H57.0001H111H157V189H176V186H249H261H318H330H333V100H337V88H334V51H335V54H347V51H358V103H380V63H383V53H380V51H390V54H402V51H403V105H424V108H442V105H510H522H571V108H583V105H632V108H644V105H693V108H705V105H754V108H766V105H811H853V108H872V105H876H878V108H890V105H935V108H947V105H950V106H949V117H939V118H896V120H893V130H896V145H950V211H949V208H937V211H907V183H889V180H877V183H873V180H861V183H823V180H811V183H766V180H754V183H705V180H693V183H644V180H632V183H585V224H527V144H491V195H445.026V144H392V168H389V178H392V185H394V207H372V204H362V207H176V204H158V207H42.0001V206H15.0001V203H3.00007V206H7.10487e-05L0 186Z" fill="#182626"/>
<path d="M876 145H875.5V145.5H876V145ZM876 105H875.5L875.5 145H876H876.5L876.5 105H876ZM876 145V145.5H881V145V144.5H876V145ZM0 186V185H-1L-1 186H0ZM362 207V208H363V207H362ZM7.10487e-05 206H-0.999929L-0.999925 207H7.10487e-05V206ZM15.0001 206H14.0001V207H15.0001V206ZM15.0001 203H16.0001V202H15.0001V203ZM3.00007 203V202H2.00007V203H3.00007ZM3.00007 206V207H4.00007V206H3.00007ZM158 207V208H159V207H158ZM158 204V203H157V204H158ZM176 204H177V203H176V204ZM176 207H175V208H176V207ZM157 186H158V185H157V186ZM176 189V190H177V189H176ZM157 189H156V190H157V189ZM176 186V185H175V186H176ZM333 100V99H332V100H333ZM333 186V187H334V186H333ZM392 178H393V177H392V178ZM358 103H357V104H358V103ZM394 185H395V184H394V185ZM392 144V143H391V144H392ZM392 185H391V186H392V185ZM389 178H388V179H389V178ZM389 168V167H388V168H389ZM392 168V169H393V168H392ZM424 108H423V109H424V108ZM403 105H402V106H403V105ZM491 144V143H490V144H491ZM442 105V104H441V105H442ZM445.026 144H446.026V143H445.026V144ZM445.026 195H444.026V196H445.026V195ZM442 108V109H443V108H442ZM424 105H425V104H424V105ZM337 100V101H338V100H337ZM337 88H338V87H337V88ZM358 51H359V50H358V51ZM334 51V50H333V51H334ZM334 88H333V89H334V88ZM347 51V50H346V51H347ZM335 51H336V50H335V51ZM335 54H334V55H335V54ZM347 54V55H348V54H347ZM380 103V104H381V103H380ZM380 63V62H379V63H380ZM403 51H404V50H403V51ZM383 53H384V52H383V53ZM383 63V64H384V63H383ZM402 51V50H401V51H402ZM402 54V55H403V54H402ZM390 54H389V55H390V54ZM390 51H391V50H390V51ZM380 51V50H379V51H380ZM380 53H379V54H380V53ZM491 195V196H492V195H491ZM527 144H528V143H527V144ZM571 105H572V104H571V105ZM571 108H570V109H571V108ZM585 224V225H586V224H585ZM527 224H526V225H527V224ZM585 183V182H584V183H585ZM705 105V104H704V105H705ZM754 105H755V104H754V105ZM632 183V184H633V183H632ZM644 180H645V179H644V180ZM632 180V179H631V180H632ZM644 183H643V184H644V183ZM632 108H631V109H632V108ZM632 105H633V104H632V105ZM583 108V109H584V108H583ZM583 105V104H582V105H583ZM693 105H694V104H693V105ZM644 108V109H645V108H644ZM644 105V104H643V105H644ZM705 108V109H706V108H705ZM693 108H692V109H693V108ZM693 183V184H694V183H693ZM693 180V179H692V180H693ZM705 180H706V179H705V180ZM754 180V179H753V180H754ZM705 183H704V184H705V183ZM754 183V184H755V183H754ZM766 180H767V179H766V180ZM766 105V104H765V105H766ZM754 108H753V109H754V108ZM766 108V109H767V108H766ZM853 108H852V109H853V108ZM853 105H854V104H853V105ZM872 108V109H873V108H872ZM872 105V104H871V105H872ZM766 183H765V184H766V183ZM877 183V184H878V183H877ZM811 183V184H812V183H811ZM811 180V179H810V180H811ZM823 180H824V179H823V180ZM823 183H822V184H823V183ZM950 145H951V144H950V145ZM896 145H895V146H896V145ZM889 180H890V179H889V180ZM907 183H908V182H907V183ZM877 180V179H876V180H877ZM889 183H888V184H889V183ZM893 130H892V131H893V130ZM896 130H897V129H896V130ZM878 105H879V104H878V105ZM878 108H877V109H878V108ZM890 108V109H891V108H890ZM893 120V119H892V120H893ZM896 120V121H897V120H896ZM939 118V119H940V118H939ZM896 118V117H895V118H896ZM935 105H936V104H935V105ZM890 105V104H889V105H890ZM935 108H934V109H935V108ZM939 117V116H938V117H939ZM947 108V109H948V108H947ZM949 117V118H950V117H949ZM949 106V105H948V106H949ZM947 105V104H946V105H947ZM950 105H951V104H950V105ZM950 106V107H951V106H950ZM950 211V212H951V211H950ZM937 211V212H938V211H937ZM937 208V207H936V208H937ZM949 208H950V207H949V208ZM949 211H948V212H949V211ZM907 211H906V212H907V211ZM42.0001 207H41.0001V208H42.0001V207ZM42.0001 206H43.0001V205H42.0001V206ZM394 207V208H395V207H394ZM372 207H371V208H372V207ZM362 204V203H361V204H362ZM372 204H373V203H372V204ZM861 180V179H860V180H861ZM861 183V184H862V183H861ZM873 180H874V179H873V180ZM873 183H872V184H873V183ZM7.10487e-05 206H1.00007L1 186H0H-1L-0.999929 206H7.10487e-05ZM15.0001 206H16.0001V203H15.0001H14.0001V206H15.0001ZM15.0001 203V202H3.00007V203V204H15.0001V203ZM3.00007 203H2.00007V206H3.00007H4.00007V203H3.00007ZM3.00007 206V205H7.10487e-05V206V207H3.00007V206ZM47.0001 186V187H57.0001V186V185H47.0001V186ZM57.0001 186V187H111V186V185H57.0001V186ZM0 186V187H47.0001V186V185H0V186ZM158 204H157V207H158H159V204H158ZM176 204V203H158V204V205H176V204ZM176 207H177V204H176H175V207H176ZM362 207V206H176V207V208H362V207ZM111 186V187H157V186V185H111V186ZM157 186H156V189H157H158V186H157ZM157 189V190H176V189V188H157V189ZM176 189H177V186H176H175V189H176ZM176 186V187H249V186V185H176V186ZM261 186V187H318V186V185H261V186ZM249 186V187H261V186V185H249V186ZM318 186V187H330V186V185H318V186ZM330 186V187H333V186V185H330V186ZM333 186H334V100H333H332V186H333ZM392 178H391V185H392H393V178H392ZM392 185V186H394V185V184H392V185ZM389 178V179H392V178V177H389V178ZM389 168H388V178H389H390V168H389ZM392 144H391V168H392H393V144H392ZM392 168V167H389V168V169H392V168ZM445.026 144V143H392V144V145H445.026V144ZM445.026 195H446.026V144H445.026H444.026V195H445.026ZM424 108V109H442V108V107H424V108ZM442 108H443V105H442H441V108H442ZM403 105V106H424V105V104H403V105ZM424 105H423V108H424H425V105H424ZM333 100V101H337V100V99H333V100ZM337 100H338V88H337H336V100H337ZM358 51H357V103H358H359V51H358ZM337 88V87H334V88V89H337V88ZM334 88H335V51H334H333V88H334ZM347 51V52H358V51V50H347V51ZM334 51V52H335V51V50H334V51ZM335 51H334V54H335H336V51H335ZM335 54V55H347V54V53H335V54ZM347 54H348V51H347H346V54H347ZM358 103V104H380V103V102H358V103ZM380 103H381V63H380H379V103H380ZM403 51H402V105H403H404V51H403ZM380 63V64H383V63V62H380V63ZM383 63H384V53H383H382V63H383ZM402 51V52H403V51V50H402V51ZM402 54H403V51H402H401V54H402ZM390 54V55H402V54V53H390V54ZM390 51H389V54H390H391V51H390ZM380 51V52H390V51V50H380V51ZM383 53V52H380V53V54H383V53ZM380 53H381V51H380H379V53H380ZM491 144H490V195H491H492V144H491ZM491 195V194H445.026V195V196H491V195ZM442 105V106H510V105V104H442V105ZM527 144V143H491V144V145H527V144ZM510 105V106H522V105V104H510V105ZM522 105V106H571V105V104H522V105ZM571 105H570V108H571H572V105H571ZM585 224V223H527V224V225H585V224ZM527 224H528V144H527H526V224H527ZM585 183H584V224H585H586V183H585ZM705 105V106H754V105V104H705V105ZM632 183V182H585V183V184H632V183ZM644 180V179H632V180V181H644V180ZM632 180H631V183H632H633V180H632ZM644 183H645V180H644H643V183H644ZM632 105H631V108H632H633V105H632ZM571 108V109H583V108V107H571V108ZM583 108H584V105H583H582V108H583ZM583 105V106H632V105V104H583V105ZM632 108V109H644V108V107H632V108ZM644 108H645V105H644H643V108H644ZM644 105V106H693V105V104H644V105ZM705 108H706V105H705H704V108H705ZM693 105H692V108H693H694V105H693ZM693 108V109H705V108V107H693V108ZM693 183V182H644V183V184H693V183ZM693 180H692V183H693H694V180H693ZM705 180V179H693V180V181H705V180ZM705 183H706V180H705H704V183H705ZM754 180H753V183H754H755V180H754ZM754 183V182H705V183V184H754V183ZM766 180V179H754V180V181H766V180ZM754 105H753V108H754H755V105H754ZM754 108V109H766V108V107H754V108ZM766 108H767V105H766H765V108H766ZM766 105V106H811V105V104H766V105ZM811 105V106H853V105V104H811V105ZM853 105H852V108H853H854V105H853ZM853 108V109H872V108V107H853V108ZM872 108H873V105H872H871V108H872ZM872 105V106H876V105V104H872V105ZM766 183H767V180H766H765V183H766ZM811 183V182H766V183V184H811V183ZM811 180H810V183H811H812V180H811ZM823 180V179H811V180V181H823V180ZM823 183H824V180H823H822V183H823ZM896 145V146H950V145V144H896V145ZM889 180V179H877V180V181H889V180ZM877 180H876V183H877H878V180H877ZM907 183V182H889V183V184H907V183ZM889 183H890V180H889H888V183H889ZM893 130V131H896V130V129H893V130ZM896 130H895V145H896H897V130H896ZM876 105V106H878V105V104H876V105ZM878 105H877V108H878H879V105H878ZM878 108V109H890V108V107H878V108ZM893 120H892V130H893H894V120H893ZM896 120V119H893V120V121H896V120ZM939 118V117H896V118V119H939V118ZM896 118H895V120H896H897V118H896ZM890 108H891V105H890H889V108H890ZM890 105V106H935V105V104H890V105ZM935 105H934V108H935H936V105H935ZM939 117H938V118H939H940V117H939ZM935 108V109H947V108V107H935V108ZM949 117V116H939V117V118H949V117ZM949 106H948V117H949H950V106H949ZM947 108H948V105H947H946V108H947ZM947 105V106H950V105V104H947V105ZM950 105H949V106H950H951V105H950ZM950 106V105H949V106V107H950V106ZM950 145H949V211H950H951V145H950ZM937 208H936V211H937H938V208H937ZM949 208V207H937V208V209H949V208ZM950 211V210H949V211V212H950V211ZM949 211H950V208H949H948V211H949ZM937 211V210H907V211V212H937V211ZM907 211H908V183H907H906V211H907ZM158 207V206H42.0001V207V208H158V207ZM42.0001 207H43.0001V206H42.0001H41.0001V207H42.0001ZM42.0001 206V205H15.0001V206V207H42.0001V206ZM394 185H393V207H394H395V185H394ZM394 207V206H372V207V208H394V207ZM362 204H361V207H362H363V204H362ZM372 207H373V204H372H371V207H372ZM372 204V203H362V204V205H372V204ZM861 180H860V183H861H862V180H861ZM861 183V182H823V183V184H861V183ZM873 180V179H861V180V181H873V180ZM877 183V182H873V183V184H877V183ZM873 183H874V180H873H872V183H873Z" fill="#3F5E5E" mask="url(#path-66-inside-1_100_18)"/>
</g>
<rect id="Rectangle 731" x="139.5" y="110.5" width="5" height="9" fill="#203003" stroke="#4A3E0F"/>
<rect id="Rectangle 732" x="189.5" y="111.5" width="5" height="9" fill="#203003" stroke="#4A3E0F"/>
<rect id="Rectangle 733" x="126.5" y="157.5" width="9" height="5" fill="#203003" stroke="#4A3E0F"/>
<rect id="Rectangle 734" x="198.5" y="157.5" width="9" height="4" fill="#203003" stroke="#4A3E0F"/>
<path id="Rectangle 735" d="M141.5 103.5V109.5H138.5V120.5H141.5V128.5H125.5V103.5H141.5Z" fill="#2F3332" stroke="#B1ADAD"/>
<path id="Rectangle 736" d="M208.5 103.5V128.5H192.5V121.5H195.5V110.5H192.5V103.5H208.5Z" fill="#2F3332" stroke="#B1ADAD"/>
<path id="Rectangle 737" d="M141.5 160.5V185.5H125.5V163.5H136.5V160.5H141.5Z" fill="#2F3332" stroke="#B1ADAD"/>
<path id="Rectangle 738" d="M197.5 160.5V162.5H208.5V185.5H192.5V160.5H197.5Z" fill="#2F3332" stroke="#B1ADAD"/>
<path id="10501" d="M124.5 103.5V129.5H142.5V120.5H145.5V109.5H142.5V103.5H191.5V110.5H188.5V121.5H191.5V129.5H209.5V103.5H332.5V185.5H209.5V159.5H208.5V156.5H197.5V159.5H191.5V185.5H176.5V182.5H156.5V185.5H142.5V159.5H136.5V156.5H125.5V159.5H124.5V185.5H0.5V103.5H124.5Z" fill="#2F3332" stroke="#B1ADAD"/>
<rect id="Rectangle 740" x="157.5" y="183.5" width="18" height="5" fill="#203003" stroke="#4A3E0F"/>
<path id="Rectangle 746" d="M875.5 0.5V39.5H873.5V36.5H860.5V39.5H850.5V0.5H875.5Z" fill="#2F3332" stroke="#B1ADAD"/>
</g>
</svg>
