<svg width="965" height="280" viewBox="0 0 965 280" fill="none" xmlns="http://www.w3.org/2000/svg">
<g id="HPSB11">
<rect id="101120" x="490.5" y="145.5" width="36" height="50" fill="#1D4427" stroke="#68EC89"/>
<rect id="101121" x="408.5" y="145.5" width="35" height="50" fill="#1D4427" stroke="#68EC89"/>
<rect id="22211" x="527.5" y="225.5" width="56" height="46" fill="#1D4427" stroke="#68EC89"/>
<rect id="Rectangle 518" x="42.5" y="215.5" width="9" height="5" fill="#203003" stroke="#4A3E0F"/>
<rect id="Rectangle 519" x="36.5" y="219.5" width="5" height="9" fill="#203003" stroke="#4A3E0F"/>
<rect id="Rectangle 520" x="18.5" y="191.5" width="5" height="9" fill="#203003" stroke="#4A3E0F"/>
<rect id="Rectangle 521" x="10.5" y="185.5" width="9" height="5" fill="#203003" stroke="#4A3E0F"/>
<rect id="Rectangle 522" x="34.5" y="130.5" width="5" height="11" fill="#203003" stroke="#4A3E0F"/>
<rect id="Rectangle 523" x="143.5" y="107.5" width="5" height="9" fill="#203003" stroke="#4A3E0F"/>
<rect id="Rectangle 524" x="331.5" y="160.5" width="5" height="18" fill="#203003" stroke="#4A3E0F"/>
<rect id="Rectangle 527" x="391" y="187" width="6" height="19" fill="#D9D9D9"/>
<rect id="Rectangle 528" x="391.5" y="187.5" width="5" height="18" fill="#203003" stroke="#4A3E0F"/>
<rect id="Rectangle 526" x="388.5" y="167.5" width="5" height="11" fill="#203003" stroke="#4A3E0F"/>
<rect id="Rectangle 525" x="331.5" y="191.5" width="5" height="18" fill="#203003" stroke="#4A3E0F"/>
<rect id="Rectangle 529" x="397.5" y="233.5" width="9" height="5" fill="#203003" stroke="#4A3E0F"/>
<path id="10112" d="M145.5 104.5V106.5H142.5V117.5H145.5V185.5H40.5V217.5H21.5V201.5H24.5V190.5H21.5V163.5H38.5V142.5H40.5V129.5H38.5V128.5H0.5V104.5H145.5Z" fill="#2F3332" stroke="#B1ADAD"/>
<path id="Rectangle 531" d="M9.5 190.5V191.5H17.5V201.5H20.5V217.5H0.5V190.5H9.5Z" fill="#2F3332" stroke="#B1ADAD"/>
<path id="Rectangle 532" d="M20.5 163.5V184.5H9.5V189.5H0.5V163.5H20.5Z" fill="#2F3332" stroke="#B1ADAD"/>
<path id="Rectangle 533" d="M33.5 129.5V142.5H37.5V162.5H0.5V129.5H33.5Z" fill="#2F3332" stroke="#B1ADAD"/>
<path id="21" d="M35.5 218.5V229.5H40.5V271.5H0.5V218.5H35.5Z" fill="#772C15" stroke="#FF8D4F"/>
<rect id="Rectangle 536" x="331.5" y="89.5" width="5" height="11" fill="#203003" stroke="#4A3E0F"/>
<rect id="Rectangle 537" x="335.5" y="50.5" width="11" height="5" fill="#203003" stroke="#4A3E0F"/>
<rect id="Rectangle 538" x="390.5" y="50.5" width="11" height="5" fill="#203003" stroke="#4A3E0F"/>
<rect id="Rectangle 539" x="376.5" y="54.5" width="5" height="9" fill="#203003" stroke="#4A3E0F"/>
<rect id="Rectangle 540" x="368.5" y="75.5" width="9" height="5" fill="#203003" stroke="#4A3E0F"/>
<rect id="Rectangle 541" x="405.5" y="103.5" width="11" height="5" fill="#203003" stroke="#4A3E0F"/>
<rect id="Rectangle 542" x="520.5" y="86.5" width="5" height="18" fill="#203003" stroke="#4A3E0F"/>
<rect id="Rectangle 543" x="643.5" y="135.5" width="5" height="18" fill="#203003" stroke="#4A3E0F"/>
<path id="Rectangle 544" d="M769.5 125.5V130.5H758.5V125.5H769.5Z" fill="#203003" stroke="#4A3E0F"/>
<path id="Rectangle 545" d="M796.5 125.5V130.5H778.5V125.5H796.5Z" fill="#203003" stroke="#4A3E0F"/>
<rect id="Rectangle 546" x="844.5" y="155.5" width="9" height="5" fill="#203003" stroke="#4A3E0F"/>
<rect id="Rectangle 547" x="931.5" y="139.5" width="11" height="5" fill="#203003" stroke="#4A3E0F"/>
<rect id="Rectangle 548" x="936.5" y="208.5" width="11" height="5" fill="#203003" stroke="#4A3E0F"/>
<rect id="Rectangle 549" x="853.5" y="178.5" width="18" height="5" fill="#203003" stroke="#4A3E0F"/>
<rect id="Rectangle 550" x="589.5" y="177.5" width="18" height="5" fill="#203003" stroke="#4A3E0F"/>
<rect id="Rectangle 551" x="872.5" y="247.5" width="5" height="18" fill="#203003" stroke="#4A3E0F"/>
<path id="101105" d="M407.5 145.5V185.5H391.5V179.5H394.5V166.5H391.5V145.5H407.5Z" fill="#2F3332" stroke="#B1ADAD"/>
<path id="Rectangle 555" d="M396.5 236.5V239.5H407.5V236.5H409.5V271.5H394.5V236.5H396.5Z" fill="#2F3332" stroke="#B1ADAD"/>
<path id="101104" d="M407.5 186.5V196.5H526.5V271.5H410.5V235.5H407.5V232.5H396.5V235.5H394.5V206.5H397.5V186.5H407.5Z" fill="#2F3332" stroke="#B1ADAD"/>
<path id="Rectangle 561" d="M333.5 0.5V88.6426H330.5V101.528H333.5V103.5H312.5V0.5H333.5Z" fill="#2F3332" stroke="#B1ADAD"/>
<path id="101107" d="M368.5 0.5V52.5H347.883V49.4424H334.529V52.5H334.5V0.5H368.5Z" fill="#2F182D" stroke="#773B72"/>
<path id="101108" d="M402.5 0.5V49.4424H389.5V52.5H369.5V0.5H402.5Z" fill="#162433" stroke="#1B2550"/>
<path id="101106" d="M375.5 53.5V64.5H378.5V74.5H367.5V77.5H357.5V53.5H375.5Z" fill="#2F3332" stroke="#B1ADAD"/>
<path id="Rectangle 565" d="M367.5 78.5V81.5H378.5V103.5H357.5V78.5H367.5Z" fill="#2F3332" stroke="#B1ADAD"/>
<path id="101109" d="M523.5 0.5V85.5H519.5V105.49H523.5V105.5H417.5V102.472H404.5V105.5H403.5V0.5H523.5Z" fill="#2F3332" stroke="#B1ADAD"/>
<path id="101111 " d="M757.5 128.5V131.5H770.5V128.5H772.5V157.5H677.207L706.207 128.5H757.5Z" fill="#2F3332" stroke="#B1ADAD"/>
<path id="101112" d="M777.5 128.5V131.5H797.5V128.5H842.5V157.5H773.5V128.5H777.5Z" fill="#2F3332" stroke="#B1ADAD"/>
<g id="101118" filter="url(#filter0_d_100_19)">
<path d="M584 181H589V183H608V181H645V184H825V181H853V184H872V181H875V247H872V266H875V272H647H584V181Z" fill="#2F3332"/>
<path d="M588.5 181.5V183.5H608.5V181.5H644.5V184.5H825.5V181.5H852.5V184.5H872.5V181.5H874.5V246.5H871.5V266.5H874.5V271.5H584.5V181.5H588.5Z" stroke="#B1ADAD"/>
</g>
<g id="101117" filter="url(#filter1_d_100_19)">
<path d="M875 181H906V272H875V266H878V247H875V181Z" fill="#2F3332"/>
<path d="M905.5 181.5V271.5H875.5V266.5H878.5V246.5H875.5V181.5H905.5Z" stroke="#B1ADAD"/>
</g>
<path id="22" d="M935.5 211.5V214.5H948.5V271.5H906.5V211.5H935.5Z" fill="#772C15" stroke="#FF8D4F"/>
<path id="Rectangle 572" d="M964.5 0.5V141.5H943.5V138.5H930.5V141.5H926.5V128.5H949.5V0.5H964.5Z" fill="#2F3332" stroke="#B1ADAD"/>
<path id="HPSB11_2" d="M356.5 53.5V104.5H379.5V64.5H382.5V53.5H389.5V56.5H402.5V106.5H404.5V109.5H417.5V106.5H645.5V134.5H642.5V154.5H645.5V158.5H843.5V161.298H854.5V158.5H927.5V142.5H930.5V145.5H943.5V142.5H948.5V207.5H935.5V210.5H906.5V180.5H872.5V177.5H852.5V180.5H824.5V183.5H645.5V180.5H608.5V176.5H588.5V180.5H583.5V224.5H527.5V144.5H489.5V195.5H444.5V144.5H390.45V166.5H387.4V179.5H390.45V206.5H393.5V215.5H334.5V210.5H337.5V190.5H334.5V179.5H337.5V159.5H334.5V101.5H337.5V88.5H334.5V56.5H347.5V53.5H356.5Z" fill="#182626" stroke="#3F5E5E"/>
<path id="101103" d="M333.5 104.5V159.5H330.5V179.5H333.5V190.5H330.5V210.5H333.5V216.5H393.5V271H41.5V229H42.5V221H52.5V218H68.5V186H146.5V117.5H149.5V106.5H146.5V104.5H333.5Z" fill="#2F3332" stroke="#B1ADAD"/>
<path id="Rectangle 604" d="M200 144H201V186H244V187H200V144Z" fill="#B1ADAD"/>
<rect id="Rectangle 605" x="266" y="186" width="3" height="1" fill="#B1ADAD"/>
<path id="101110" d="M761.5 0.5V106.5H892.534L842.898 127.5H797.5V124.5H777.5V127.5H770.5V124.5H757.5V127.5H705.793L675.793 157.5H646.5V154.5H649.5V134.5H646.5V105.5H526.5V85.5H524.5V0.5H761.5Z" fill="#2F3332" stroke="#B1ADAD"/>
<path id="101115" d="M829.5 0.5V105.5H762.5V0.5H829.5Z" fill="#2F182D" stroke="#773B72"/>
<path id="101116" d="M894.5 0.5V105.5H830.5V0.5H894.5Z" fill="#162433" stroke="#1B2550"/>
<rect id="Rectangle 653" x="409" y="197" width="2" height="22" fill="#B1ADAD"/>
<path id="101101" d="M67.5 186.5V217H52.5V214.5H41.5V186.5H67.5Z" fill="#2F3332" stroke="#B1ADAD"/>
<path id="101114" d="M925.5 128.5V142.5H926.5V157.5H854.5V154.5H853.5V128.5H925.5Z" fill="#2F3332" stroke="#B1ADAD"/>
<path id="101113" d="M948.5 0.5V127.5H852.5V154.5H843.5V128.331L895.194 106.461L895.5 106.331V0.5H948.5Z" fill="#2F3332" stroke="#B1ADAD"/>
</g>
<defs>
<filter id="filter0_d_100_19" x="580" y="181" width="299" height="99" filterUnits="userSpaceOnUse" color-interpolation-filters="sRGB">
<feFlood flood-opacity="0" result="BackgroundImageFix"/>
<feColorMatrix in="SourceAlpha" type="matrix" values="0 0 0 0 0 0 0 0 0 0 0 0 0 0 0 0 0 0 127 0" result="hardAlpha"/>
<feOffset dy="4"/>
<feGaussianBlur stdDeviation="2"/>
<feComposite in2="hardAlpha" operator="out"/>
<feColorMatrix type="matrix" values="0 0 0 0 0 0 0 0 0 0 0 0 0 0 0 0 0 0 0.25 0"/>
<feBlend mode="normal" in2="BackgroundImageFix" result="effect1_dropShadow_100_19"/>
<feBlend mode="normal" in="SourceGraphic" in2="effect1_dropShadow_100_19" result="shape"/>
</filter>
<filter id="filter1_d_100_19" x="871" y="181" width="39" height="99" filterUnits="userSpaceOnUse" color-interpolation-filters="sRGB">
<feFlood flood-opacity="0" result="BackgroundImageFix"/>
<feColorMatrix in="SourceAlpha" type="matrix" values="0 0 0 0 0 0 0 0 0 0 0 0 0 0 0 0 0 0 127 0" result="hardAlpha"/>
<feOffset dy="4"/>
<feGaussianBlur stdDeviation="2"/>
<feComposite in2="hardAlpha" operator="out"/>
<feColorMatrix type="matrix" values="0 0 0 0 0 0 0 0 0 0 0 0 0 0 0 0 0 0 0.25 0"/>
<feBlend mode="normal" in2="BackgroundImageFix" result="effect1_dropShadow_100_19"/>
<feBlend mode="normal" in="SourceGraphic" in2="effect1_dropShadow_100_19" result="shape"/>
</filter>
</defs>
</svg>
