<svg width="965" height="271" viewBox="0 0 965 271" fill="none" xmlns="http://www.w3.org/2000/svg">
<g id="HPSB9">
<path id="Rectangle 372" d="M450.5 103.5V108.5H439.5V103.5H450.5Z" fill="#203003" stroke="#4A3E0F"/>
<path id="Rectangle 402" d="M401.5 50.5V55.5H390.5V50.5H401.5Z" fill="#203003" stroke="#4A3E0F"/>
<path id="Rectangle 403" d="M346.5 50V55H335.5V50H346.5Z" fill="#203003" stroke="#4A3E0F"/>
<path id="Rectangle 408" d="M336.5 89.5V100.5H331.5V89.5H336.5Z" fill="#203003" stroke="#4A3E0F"/>
<path id="Rectangle 404" d="M382.5 54.5V63.5H377.5V54.5H382.5Z" fill="#203003" stroke="#4A3E0F"/>
<path id="Rectangle 405" d="M378.5 76.5V81.5H369.5V76.5H378.5Z" fill="#203003" stroke="#4A3E0F"/>
<path id="Rectangle 373" d="M519.5 103.5V108.5H508.5V103.5H519.5Z" fill="#203003" stroke="#4A3E0F"/>
<path id="Rectangle 374" d="M570.5 103.5V108.5H559.5V103.5H570.5Z" fill="#203003" stroke="#4A3E0F"/>
<path id="Rectangle 400" d="M394.5 168.5V179.5H389.5V168.5H394.5Z" fill="#203003" stroke="#4A3E0F"/>
<path id="Rectangle 409" d="M394.5 187.5V205.5H389.5V187.5H394.5Z" fill="#203003" stroke="#4A3E0F"/>
<path id="Rectangle 411" d="M372.5 204V209H354.5V204H372.5Z" fill="#203003" stroke="#4A3E0F"/>
<path id="Rectangle 413" d="M331.5 187.5V205.5H326.5V187.5H331.5Z" fill="#203003" stroke="#4A3E0F"/>
<path id="Rectangle 419" d="M281.5 204.5V209.5H263.5V204.5H281.5Z" fill="#203003" stroke="#4A3E0F"/>
<path id="Rectangle 424" d="M188.5 204.5V209.5H170.5V204.5H188.5Z" fill="#203003" stroke="#4A3E0F"/>
<path id="Rectangle 425" d="M184.5 183.5V188.5H166.5V183.5H184.5Z" fill="#203003" stroke="#4A3E0F"/>
<path id="Rectangle 421" d="M322.5 238.5V243.5H311.5V238.5H322.5Z" fill="#203003" stroke="#4A3E0F"/>
<path id="Rectangle 422" d="M264.5 229.5V238.5H259.5V229.5H264.5Z" fill="#203003" stroke="#4A3E0F"/>
<path id="Rectangle 423" d="M200.5 229.5V238.5H195.5V229.5H200.5Z" fill="#203003" stroke="#4A3E0F"/>
<path id="Rectangle 426" d="M160.5 204.5V209.5H151.5V204.5H160.5Z" fill="#203003" stroke="#4A3E0F"/>
<path id="Rectangle 428" d="M160.5 241.5V246.5H151.5V241.5H160.5Z" fill="#203003" stroke="#4A3E0F"/>
<path id="Rectangle 429" d="M112.5 226.5V235.5H107.5V226.5H112.5Z" fill="#203003" stroke="#4A3E0F"/>
<path id="Rectangle 430" d="M105.5 241.5V246.5H96.5V241.5H105.5Z" fill="#203003" stroke="#4A3E0F"/>
<path id="Rectangle 431" d="M4 204H16V210H4V204Z" fill="#D9D9D9"/>
<path id="Rectangle 433" d="M125.5 183.5V188.5H116.5V183.5H125.5Z" fill="#203003" stroke="#4A3E0F"/>
<path id="Rectangle 435" d="M120.5 130.5V135.5H111.5V130.5H120.5Z" fill="#203003" stroke="#4A3E0F"/>
<path id="Rectangle 436" d="M149.5 130.5V135.5H140.5V130.5H149.5Z" fill="#203003" stroke="#4A3E0F"/>
<path id="Rectangle 438" d="M295.5 130.5V135.5H286.5V130.5H295.5Z" fill="#203003" stroke="#4A3E0F"/>
<path id="Rectangle 437" d="M184.5 130.5V135.5H173.5V130.5H184.5Z" fill="#203003" stroke="#4A3E0F"/>
<path id="Rectangle 434" d="M85.5 183.5V188.5H76.5V183.5H85.5Z" fill="#203003" stroke="#4A3E0F"/>
<path id="Rectangle 432" d="M15.5 204.5V209.5H4.5V204.5H15.5Z" fill="#203003" stroke="#4A3E0F"/>
<path id="Rectangle 420" d="M251.5 183.5V188.5H233.5V183.5H251.5Z" fill="#203003" stroke="#4A3E0F"/>
<path id="Rectangle 410" d="M407.5 233.5V238.5H398.5V233.5H407.5Z" fill="#203003" stroke="#4A3E0F"/>
<path id="Rectangle 375" d="M647.5 103.5V108.5H636.5V103.5H647.5Z" fill="#203003" stroke="#4A3E0F"/>
<path id="Rectangle 376" d="M704.5 142.5V147.5H693.5V142.5H704.5Z" fill="#203003" stroke="#4A3E0F"/>
<path id="Rectangle 381" d="M758.5 142.5V147.5H747.5V142.5H758.5Z" fill="#203003" stroke="#4A3E0F"/>
<path id="Rectangle 382" d="M815.5 142.5V147.5H804.5V142.5H815.5Z" fill="#203003" stroke="#4A3E0F"/>
<path id="Rectangle 383" d="M874.5 142.5V147.5H863.5V142.5H874.5Z" fill="#203003" stroke="#4A3E0F"/>
<path id="Rectangle 390" d="M904.5 181.5V186.5H893.5V181.5H904.5Z" fill="#203003" stroke="#4A3E0F"/>
<path id="Rectangle 654" d="M948.5 209.5V214.5H938.5V209.5H948.5Z" fill="#203003" stroke="#4A3E0F"/>
<path id="Rectangle 391" d="M830.5 181.5V186.5H819.5V181.5H830.5Z" fill="#203003" stroke="#4A3E0F"/>
<path id="Rectangle 384" d="M889.5 103.5V108.5H878.5V103.5H889.5Z" fill="#203003" stroke="#4A3E0F"/>
<path id="Rectangle 385" d="M946.5 103.5V108.5H935.5V103.5H946.5Z" fill="#203003" stroke="#4A3E0F"/>
<path id="Rectangle 386" d="M954.5 106.5V117.5H949.5V106.5H954.5Z" fill="#203003" stroke="#4A3E0F"/>
<rect id="10908" x="527.5" y="225.5" width="57" height="45" fill="#1D4427" stroke="#68EC89"/>
<g id="HPSB9_2">
<mask id="path-45-inside-1_100_22" fill="white">
<path d="M334 186V101H337V89H334V53H335V55.5H347V53H352.5H358V104H380V84V64H383V54H380V53H390V56H402V53H403V106H439V109H451V106H508V109H520V106H559V109H571V106H636V109H648V106H651V145H693V148H705V145H747V148H759V145H776.5H795.5H804V148H816V145H863V148H875V145H882H876V106H878V109H890V106H935V109H947V106H949V107.5V116H939V119H896V121H894V131H896V146H950V212H949V209H938V212H907V184H905V181H893V184H831V181H819V184H802V181H783V184H741V181H722V184H688V181H669V184H631H621V181H602V184H585V225H527V146H509.5H491V196H445.026V146H392V168H389V180H392V187H389V207H373V203.5H354V207H332V186H334Z"/>
</mask>
<path d="M334 186V101H337V89H334V53H335V55.5H347V53H352.5H358V104H380V84V64H383V54H380V53H390V56H402V53H403V106H439V109H451V106H508V109H520V106H559V109H571V106H636V109H648V106H651V145H693V148H705V145H747V148H759V145H776.5H795.5H804V148H816V145H863V148H875V145H882H876V106H878V109H890V106H935V109H947V106H949V107.5V116H939V119H896V121H894V131H896V146H950V212H949V209H938V212H907V184H905V181H893V184H831V181H819V184H802V181H783V184H741V181H722V184H688V181H669V184H631H621V181H602V184H585V225H527V146H509.5H491V196H445.026V146H392V168H389V180H392V187H389V207H373V203.5H354V207H332V186H334Z" fill="#182626" stroke="#3F5E5E" stroke-width="2" mask="url(#path-45-inside-1_100_22)"/>
</g>
<path id="Rectangle 388" d="M899.5 121.5V130.5H894.5V121.5H899.5Z" fill="#203003" stroke="#4A3E0F"/>
<path id="Rectangle 389" d="M948.5 116.5V121.5H939.5V116.5H948.5Z" fill="#203003" stroke="#4A3E0F"/>
<rect id="Rectangle 396" x="783.5" y="181.5" width="18" height="5" fill="#203003" stroke="#4A3E0F"/>
<rect id="Rectangle 397" x="722.5" y="181.5" width="18" height="5" fill="#203003" stroke="#4A3E0F"/>
<path id="Rectangle 398" d="M687.5 181.5V186.5H669.5V181.5H687.5Z" fill="#203003" stroke="#4A3E0F"/>
<rect id="Rectangle 399" x="602.5" y="181.5" width="18" height="5" fill="#203003" stroke="#4A3E0F"/>
<rect id="10920" x="1.5" y="102.5" width="68" height="83" fill="#2F3332" stroke="#B1ADAD"/>
<path id="17" d="M3.40723 207.5V210.439H16.5V207.5H41.5V270.5H0.507812L1.46875 207.5H3.40723Z" fill="#772C15" stroke="#FF8D4F"/>
<path id="10921" d="M108.5 102.5V133.5H110.5V136.5H121.5V133.5H130V185.5H126.5V182.5H115.5V185.5H86.5V182.5H75.5V185.5H70.5V102.5H108.5Z" fill="#2F3332" stroke="#B1ADAD"/>
<path id="Rectangle 447" d="M130 102.5V132.5H121.5V129.5H110.5V132.5H109.5V102.5H130Z" fill="#2F3332" stroke="#B1ADAD"/>
<path id="Rectangle 448" d="M150.5 102.5V129.5H139.5V132.5H131V102.5H150.5Z" fill="#2F3332" stroke="#B1ADAD"/>
<path id="10923" d="M185.5 102.5V129.5H172.5V132.5H151.5V102.5H185.5Z" fill="#2F3332" stroke="#B1ADAD"/>
<path id="10922" d="M139.5 133.5V136.5H150.5V133.5H172.5V136.5H185.5V182.5H165.5V185.5H131V133.5H139.5Z" fill="#2F3332" stroke="#B1ADAD"/>
<path id="Rectangle 451" d="M296.5 102.5V129.5H285.5V133.5H278.5V102.5H296.5Z" fill="#2F3332" stroke="#B1ADAD"/>
<path id="10924" d="M277.5 102.5V134.5H285.5V136.5H296.5V134.5H297.5V102.5H333.5V185.5H252.5V182.5H232.5V185.5H186.5V102.5H277.5Z" fill="#2F3332" stroke="#B1ADAD"/>
<path id="10912 Autoclave" d="M95.5 244.5V247.5H106.5V244.5H127.5V270.5H78.5V244.5H95.5Z" fill="#2F3332" stroke="#B1ADAD"/>
<path id="10913" d="M127.5 225.5V243.5H109.5V236.5H113.5V225.5H127.5Z" fill="#2F3332" stroke="#B1ADAD"/>
<path id="10915" d="M150.5 207.5V210.5H161.5V240.5H150.5V243.5H128.5V207.5H150.5Z" fill="#2F3332" stroke="#B1ADAD"/>
<path id="10914" d="M150.5 244.5V247.5H161.5V270.5H128.5V244.5H150.5Z" fill="#2F3332" stroke="#B1ADAD"/>
<path id="10916" d="M169.5 207.5V210.5H189.5V207.5H197.5V228.5H194.5V239.5H197.5V240.5H230.5V270.5H162.5V207.5H169.5Z" fill="#2F3332" stroke="#B1ADAD"/>
<path id="Rectangle 628" d="M230.5 207.5V239.5H201.5V228.5H198.5V207.5H230.5Z" fill="#2F3332" stroke="#B1ADAD"/>
<path id="Rectangle 630" d="M261.5 207.5V228.5H258.5V239.5H231.5V207.5H261.5Z" fill="#2F3332" stroke="#B1ADAD"/>
<path id="10917" d="M262.5 210.5H282.5V270.5H231.5V240.5H262.5V239.5H265.5V228.5H262.5V210.5Z" fill="#2F3332" stroke="#B1ADAD"/>
<path id="10919" d="M310.5 241.5V244.5H323.5V241.5H328.5V270.5H283.5V241.5H310.5Z" fill="#2F3332" stroke="#B1ADAD"/>
<path id="10926" d="M353.5 207.5V210H373.5V207.5H394.5V270.5H329.5V207.5H353.5Z" fill="#2F3332" stroke="#B1ADAD"/>
<path id="Rectangle 635" d="M397.5 236.5V239.5H408.5V236.5H410.5V270.5H395.5V236.5H397.5Z" fill="#2F3332" stroke="#B1ADAD"/>
<path id="Rectangle 636" d="M333.5 0.5V88.5H330.5V101.5H312.5V0.5H333.5Z" fill="#2F3332" stroke="#B1ADAD"/>
<path id="10928" d="M368.5 0.5V52.5H347.5V49H334.5V0.5H368.5Z" fill="#2F182D" stroke="#773B72"/>
<path id="10930" d="M402.5 0.5V49.5H389.5V52.5H370.5V0.5H402.5Z" fill="#162433" stroke="#1B2550"/>
<path id="10928_2" d="M376.5 53.5V64.5H379.5V75.5H368.5V78.5H358.5V53.5H376.5Z" fill="#2F3332" stroke="#B1ADAD"/>
<path id="Rectangle 640" d="M368.5 79.5V82.5H379.5V103.5H358.5V79.5H368.5Z" fill="#2F3332" stroke="#B1ADAD"/>
<path id="10902" d="M523.5 0.5V105.5H520.5V102.5H507.5V105.5H451.5V102.5H438.5V105.5H403.5V0.5H523.5Z" fill="#2F3332" stroke="#B1ADAD"/>
<path id="10903" d="M650.5 0.5V105.5H648.5V102.5H635.5V105.5H571.5V102.5H558.5V105.5H524.5V0.5H650.5Z" fill="#2F3332" stroke="#B1ADAD"/>
<rect id="10931" x="409.5" y="146.5" width="35" height="49" fill="#1D4427" stroke="#68EC89"/>
<rect id="10932" x="491.5" y="146.5" width="35" height="49" fill="#1D4427" stroke="#68EC89"/>
<path id="10927" d="M408.5 146.5V183.5H392.5V180.5H395.5V167.5H392.5V146.5H408.5Z" fill="#2F3332" stroke="#B1ADAD"/>
<path id="10901" d="M408.5 184.5V196.5H526.5V270.5H411.5V235.5H408.5V232.5H397.5V235.5H395.5V186.5H392.5V184.5H408.5Z" fill="#2F3332" stroke="#B1ADAD"/>
<rect id="Rectangle 655" x="409" y="197" width="3" height="22" fill="#B1ADAD"/>
<path id="10925" d="M75.5 186.5V189.5H86.5V186.5H115.5V189.5H126.5V186.5H165.5V188.987L165.987 189L184.987 189.5L185.5 189.514V186.5H232.5V189.5H252.5V186.5H325.5V206.5H282.5V203.5H262.5V206.5H189.5V203.5H169.5V206.5H161.5V203.5H150.5V206.5H109V207.5H127.5V224.5H108.5V225.5H106.5V236.5H108.5V243.5H106.5V240.5H95.5V243.5H78.5V206.5H16.5V203.5H3.5V206.5H1.5V186.5H75.5Z" fill="#182626" stroke="#3F5E5E"/>
<path id="10910" d="M601.5 184.5V187.5H621.5V184.5H668.5V187.5H688.5V184.5H704.5V270.5H585.5V184.5H601.5Z" fill="#2F3332" stroke="#B1ADAD"/>
<path id="10909" d="M721.5 184.5V187.5H741.5V184.5H782.5V187.5H802.5V184.5H818.5V270.5H705.5V184.5H721.5Z" fill="#2F3332" stroke="#B1ADAD"/>
<path id="10908" d="M892.5 184.5V187.5H905.5V184.5H906.5V270.5H819.5V187.5H831.5V184.5H892.5Z" fill="#2F3332" stroke="#B1ADAD"/>
<path id="18" d="M937.5 212.5V215.5H949.5V270.5H907.5V212.5H937.5Z" fill="#772C15" stroke="#FF8D4F"/>
<path id="10904" d="M759.5 0.5V105.5H706.5V144.5H705.5V141.5H692.5V144.5H651.5V0.5H759.5Z" fill="#2F3332" stroke="#B1ADAD"/>
<rect id="Rectangle 665" x="679" width="3" height="30" fill="#B1ADAD"/>
<rect id="Rectangle 666" x="651" y="53" width="21" height="2" fill="#B1ADAD"/>
<path id="Rectangle 667" d="M691 53H713V0H715V53V55H691V53Z" fill="#B1ADAD"/>
<path id="10906" d="M817.5 0.5V144.5H816.5V141.5H803.5V144.5H760.5V0.5H817.5Z" fill="#2F3332" stroke="#B1ADAD"/>
<path id="10907" d="M875.5 0.5V141.5H862.5V144.5H818.5V0.5H875.5Z" fill="#2F3332" stroke="#B1ADAD"/>
<path id="10935" d="M912.5 0.5V105.5H890.5V102.5H877.5V105.5H876.5V0.5H912.5Z" fill="#2F182D" stroke="#6B386E"/>
<path id="10936" d="M949.5 0.5V105.5H947.5V102.5H934.5V105.5H913.5V0.5H949.5Z" fill="#162433" stroke="#141A30"/>
<path id="Rectangle 674" d="M964.5 0.5V140.5H950.5V118.5H955.5V105.5H950.5V0.5H964.5Z" fill="#2F3332" stroke="#B1ADAD"/>
<path id="10934" d="M938.5 119.5V122.5H949.5V145.5H923.5V119.5H938.5Z" fill="#2F3332" stroke="#B1ADAD"/>
<path id="100109" d="M922.5 119.5V145.5H896.5V131.5H900.5V120.5H896.5V119.5H922.5Z" fill="#2F3332" stroke="#B1ADAD"/>
<rect id="10911" x="42.5" y="207.5" width="35" height="63" fill="#2F3332" stroke="#B1ADAD"/>
<path id="10918" d="M328.5 207.5V240.5H323.5V237.5H310.5V240.5H283.5V207.5H328.5Z" fill="#2F3332" stroke="#B1ADAD"/>
<path id="10905" d="M759.5 106.5V141.5H746.5V144.5H707.5V106.5H759.5Z" fill="#2F3332" stroke="#B1ADAD"/>
</g>
</svg>
